<?xml version="1.0" encoding="UTF-8"?>
<svg xmlns="http://www.w3.org/2000/svg" xmlns:xlink="http://www.w3.org/1999/xlink" width="504pt" height="288pt" viewBox="0 0 504 288">
<defs>
<g>
<g id="glyph-0-0">
<path d="M 0.367188 -3.105469 C 0.363281 -3.847656 0.4375 -4.445312 0.59375 -4.902344 C 0.742188 -5.355469 0.972656 -5.707031 1.277344 -5.953125 C 1.578125 -6.199219 1.957031 -6.320312 2.417969 -6.324219 C 2.753906 -6.320312 3.050781 -6.253906 3.308594 -6.121094 C 3.5625 -5.984375 3.773438 -5.789062 3.9375 -5.53125 C 4.101562 -5.273438 4.230469 -4.960938 4.328125 -4.59375 C 4.421875 -4.226562 4.46875 -3.730469 4.472656 -3.105469 C 4.46875 -2.367188 4.394531 -1.769531 4.242188 -1.316406 C 4.089844 -0.859375 3.863281 -0.507812 3.5625 -0.261719 C 3.257812 -0.015625 2.875 0.105469 2.417969 0.109375 C 1.808594 0.105469 1.332031 -0.109375 0.988281 -0.546875 C 0.570312 -1.066406 0.363281 -1.921875 0.367188 -3.105469 Z M 1.160156 -3.105469 C 1.160156 -2.070312 1.28125 -1.378906 1.523438 -1.039062 C 1.765625 -0.695312 2.0625 -0.527344 2.417969 -0.527344 C 2.773438 -0.527344 3.074219 -0.699219 3.316406 -1.042969 C 3.558594 -1.386719 3.679688 -2.074219 3.679688 -3.105469 C 3.679688 -4.144531 3.558594 -4.832031 3.316406 -5.171875 C 3.074219 -5.511719 2.769531 -5.683594 2.410156 -5.683594 C 2.050781 -5.683594 1.769531 -5.53125 1.558594 -5.234375 C 1.292969 -4.84375 1.160156 -4.136719 1.160156 -3.105469 Z M 1.160156 -3.105469 "/>
</g>
<g id="glyph-0-1">
<path d="M 0.800781 0 L 0.800781 -0.882812 L 1.679688 -0.882812 L 1.679688 0 Z M 0.800781 0 "/>
</g>
<g id="glyph-0-2">
<path d="M 3.277344 0 L 2.503906 0 L 2.503906 -4.929688 C 2.316406 -4.75 2.074219 -4.574219 1.773438 -4.394531 C 1.46875 -4.214844 1.195312 -4.082031 0.957031 -3.996094 L 0.957031 -4.742188 C 1.386719 -4.941406 1.765625 -5.1875 2.089844 -5.480469 C 2.414062 -5.769531 2.644531 -6.050781 2.78125 -6.324219 L 3.277344 -6.324219 Z M 3.277344 0 "/>
</g>
<g id="glyph-0-3">
<path d="M 4.429688 -0.742188 L 4.429688 0 L 0.265625 0 C 0.257812 -0.1875 0.289062 -0.367188 0.355469 -0.539062 C 0.460938 -0.820312 0.628906 -1.097656 0.863281 -1.375 C 1.09375 -1.648438 1.433594 -1.964844 1.878906 -2.328125 C 2.5625 -2.886719 3.023438 -3.332031 3.265625 -3.664062 C 3.5 -3.988281 3.621094 -4.300781 3.625 -4.59375 C 3.621094 -4.898438 3.511719 -5.15625 3.296875 -5.367188 C 3.074219 -5.578125 2.789062 -5.683594 2.441406 -5.683594 C 2.066406 -5.683594 1.769531 -5.570312 1.546875 -5.347656 C 1.320312 -5.125 1.207031 -4.816406 1.207031 -4.421875 L 0.414062 -4.503906 C 0.464844 -5.09375 0.667969 -5.542969 1.027344 -5.855469 C 1.378906 -6.164062 1.855469 -6.320312 2.457031 -6.324219 C 3.058594 -6.320312 3.539062 -6.152344 3.890625 -5.820312 C 4.242188 -5.484375 4.417969 -5.070312 4.421875 -4.578125 C 4.417969 -4.320312 4.367188 -4.074219 4.265625 -3.832031 C 4.164062 -3.589844 3.992188 -3.332031 3.753906 -3.0625 C 3.511719 -2.792969 3.113281 -2.425781 2.5625 -1.957031 C 2.09375 -1.566406 1.796875 -1.300781 1.664062 -1.160156 C 1.53125 -1.019531 1.421875 -0.878906 1.339844 -0.742188 Z M 4.429688 -0.742188 "/>
</g>
<g id="glyph-0-4">
<path d="M 0.371094 -1.664062 L 1.144531 -1.765625 C 1.230469 -1.324219 1.382812 -1.007812 1.597656 -0.816406 C 1.808594 -0.621094 2.066406 -0.527344 2.375 -0.527344 C 2.734375 -0.527344 3.042969 -0.652344 3.296875 -0.90625 C 3.546875 -1.15625 3.671875 -1.46875 3.675781 -1.84375 C 3.671875 -2.195312 3.554688 -2.488281 3.324219 -2.71875 C 3.089844 -2.949219 2.796875 -3.0625 2.441406 -3.066406 C 2.292969 -3.0625 2.109375 -3.035156 1.894531 -2.980469 L 1.980469 -3.660156 C 2.03125 -3.652344 2.070312 -3.648438 2.105469 -3.652344 C 2.433594 -3.648438 2.730469 -3.734375 2.996094 -3.910156 C 3.253906 -4.078125 3.386719 -4.34375 3.390625 -4.703125 C 3.386719 -4.984375 3.289062 -5.21875 3.101562 -5.40625 C 2.90625 -5.589844 2.660156 -5.683594 2.359375 -5.6875 C 2.054688 -5.683594 1.804688 -5.589844 1.605469 -5.402344 C 1.402344 -5.214844 1.273438 -4.929688 1.21875 -4.554688 L 0.445312 -4.691406 C 0.539062 -5.207031 0.753906 -5.609375 1.089844 -5.894531 C 1.425781 -6.179688 1.84375 -6.320312 2.34375 -6.324219 C 2.6875 -6.320312 3.003906 -6.246094 3.292969 -6.101562 C 3.582031 -5.953125 3.800781 -5.753906 3.953125 -5.5 C 4.105469 -5.242188 4.183594 -4.972656 4.183594 -4.6875 C 4.183594 -4.414062 4.109375 -4.164062 3.964844 -3.945312 C 3.816406 -3.71875 3.601562 -3.542969 3.316406 -3.410156 C 3.6875 -3.324219 3.976562 -3.144531 4.183594 -2.875 C 4.390625 -2.601562 4.492188 -2.261719 4.496094 -1.859375 C 4.492188 -1.304688 4.292969 -0.839844 3.894531 -0.460938 C 3.492188 -0.078125 2.984375 0.109375 2.371094 0.113281 C 1.816406 0.109375 1.355469 -0.0507812 0.992188 -0.378906 C 0.625 -0.707031 0.417969 -1.136719 0.371094 -1.664062 Z M 0.371094 -1.664062 "/>
</g>
<g id="glyph-0-5">
<path d="M 2.84375 0 L 2.84375 -1.507812 L 0.113281 -1.507812 L 0.113281 -2.21875 L 2.988281 -6.300781 L 3.617188 -6.300781 L 3.617188 -2.21875 L 4.46875 -2.21875 L 4.46875 -1.507812 L 3.617188 -1.507812 L 3.617188 0 Z M 2.84375 -2.21875 L 2.84375 -5.058594 L 0.871094 -2.21875 Z M 2.84375 -2.21875 "/>
</g>
<g id="glyph-0-6">
<path d="M 0.367188 -1.648438 L 1.175781 -1.71875 C 1.234375 -1.320312 1.375 -1.023438 1.59375 -0.824219 C 1.8125 -0.625 2.078125 -0.527344 2.390625 -0.527344 C 2.761719 -0.527344 3.074219 -0.667969 3.335938 -0.949219 C 3.589844 -1.230469 3.71875 -1.601562 3.722656 -2.066406 C 3.71875 -2.503906 3.59375 -2.851562 3.347656 -3.109375 C 3.097656 -3.363281 2.773438 -3.492188 2.375 -3.492188 C 2.125 -3.492188 1.902344 -3.433594 1.703125 -3.320312 C 1.5 -3.207031 1.34375 -3.0625 1.230469 -2.882812 L 0.503906 -2.976562 L 1.113281 -6.214844 L 4.246094 -6.214844 L 4.246094 -5.472656 L 1.730469 -5.472656 L 1.390625 -3.78125 C 1.765625 -4.039062 2.164062 -4.171875 2.582031 -4.175781 C 3.128906 -4.171875 3.59375 -3.980469 3.972656 -3.605469 C 4.351562 -3.222656 4.539062 -2.734375 4.542969 -2.136719 C 4.539062 -1.5625 4.375 -1.070312 4.042969 -0.65625 C 3.636719 -0.148438 3.085938 0.105469 2.390625 0.109375 C 1.816406 0.105469 1.347656 -0.0507812 0.984375 -0.371094 C 0.621094 -0.691406 0.414062 -1.117188 0.367188 -1.648438 Z M 0.367188 -1.648438 "/>
</g>
<g id="glyph-1-0">
<path d="M 1.617188 0 L 0.71875 0 L 0.71875 -7.875 L 1.6875 -7.875 L 1.6875 -5.066406 C 2.09375 -5.574219 2.613281 -5.828125 3.25 -5.832031 C 3.597656 -5.828125 3.929688 -5.757812 4.246094 -5.621094 C 4.554688 -5.476562 4.8125 -5.277344 5.019531 -5.023438 C 5.21875 -4.765625 5.378906 -4.457031 5.496094 -4.097656 C 5.609375 -3.730469 5.664062 -3.34375 5.667969 -2.9375 C 5.664062 -1.957031 5.421875 -1.203125 4.941406 -0.671875 C 4.453125 -0.136719 3.875 0.128906 3.203125 0.128906 C 2.527344 0.128906 2 -0.152344 1.617188 -0.714844 Z M 1.605469 -2.894531 C 1.605469 -2.207031 1.699219 -1.710938 1.886719 -1.414062 C 2.191406 -0.910156 2.601562 -0.660156 3.121094 -0.664062 C 3.539062 -0.660156 3.902344 -0.84375 4.214844 -1.214844 C 4.519531 -1.578125 4.675781 -2.128906 4.679688 -2.859375 C 4.675781 -3.601562 4.527344 -4.148438 4.234375 -4.507812 C 3.9375 -4.859375 3.582031 -5.039062 3.164062 -5.039062 C 2.742188 -5.039062 2.375 -4.855469 2.066406 -4.488281 C 1.757812 -4.121094 1.605469 -3.589844 1.605469 -2.894531 Z M 1.605469 -2.894531 "/>
</g>
<g id="glyph-1-1">
<path d="M 4.425781 0 L 4.425781 -0.71875 C 4.058594 -0.152344 3.527344 0.128906 2.832031 0.128906 C 2.371094 0.128906 1.953125 0.00390625 1.574219 -0.246094 C 1.191406 -0.496094 0.894531 -0.84375 0.6875 -1.296875 C 0.476562 -1.742188 0.375 -2.261719 0.375 -2.847656 C 0.375 -3.414062 0.46875 -3.929688 0.660156 -4.394531 C 0.847656 -4.859375 1.132812 -5.214844 1.515625 -5.460938 C 1.894531 -5.707031 2.320312 -5.828125 2.789062 -5.832031 C 3.132812 -5.828125 3.4375 -5.757812 3.707031 -5.613281 C 3.972656 -5.46875 4.191406 -5.277344 4.359375 -5.046875 L 4.359375 -7.875 L 5.324219 -7.875 L 5.324219 0 Z M 1.371094 -2.847656 C 1.371094 -2.113281 1.523438 -1.566406 1.832031 -1.207031 C 2.136719 -0.84375 2.5 -0.660156 2.921875 -0.664062 C 3.339844 -0.660156 3.699219 -0.835938 3.996094 -1.183594 C 4.292969 -1.527344 4.441406 -2.054688 4.441406 -2.765625 C 4.441406 -3.546875 4.289062 -4.117188 3.988281 -4.484375 C 3.6875 -4.84375 3.316406 -5.027344 2.878906 -5.03125 C 2.445312 -5.027344 2.085938 -4.851562 1.800781 -4.503906 C 1.511719 -4.152344 1.371094 -3.601562 1.371094 -2.847656 Z M 1.371094 -2.847656 "/>
</g>
<g id="glyph-2-0">
<path d="M 0 -4.425781 L -0.71875 -4.425781 C -0.152344 -4.058594 0.128906 -3.527344 0.128906 -2.832031 C 0.128906 -2.371094 0.00390625 -1.953125 -0.246094 -1.574219 C -0.496094 -1.191406 -0.84375 -0.894531 -1.296875 -0.6875 C -1.742188 -0.476562 -2.261719 -0.375 -2.847656 -0.375 C -3.414062 -0.375 -3.929688 -0.46875 -4.394531 -0.660156 C -4.859375 -0.847656 -5.214844 -1.132812 -5.460938 -1.515625 C -5.707031 -1.894531 -5.828125 -2.320312 -5.832031 -2.789062 C -5.828125 -3.132812 -5.757812 -3.4375 -5.613281 -3.707031 C -5.46875 -3.972656 -5.277344 -4.191406 -5.046875 -4.359375 L -7.875 -4.363281 L -7.875 -5.324219 L 0 -5.324219 Z M -2.847656 -1.371094 C -2.113281 -1.371094 -1.566406 -1.523438 -1.207031 -1.832031 C -0.84375 -2.136719 -0.660156 -2.5 -0.664062 -2.921875 C -0.660156 -3.339844 -0.835938 -3.699219 -1.183594 -3.996094 C -1.527344 -4.292969 -2.054688 -4.441406 -2.765625 -4.441406 C -3.546875 -4.441406 -4.117188 -4.289062 -4.484375 -3.988281 C -4.84375 -3.6875 -5.027344 -3.316406 -5.03125 -2.878906 C -5.027344 -2.445312 -4.851562 -2.085938 -4.503906 -1.800781 C -4.152344 -1.511719 -3.601562 -1.371094 -2.847656 -1.371094 Z M -2.847656 -1.371094 "/>
</g>
<g id="glyph-2-1">
<path d="M -1.835938 -4.628906 L -1.714844 -5.628906 C -1.125 -5.46875 -0.671875 -5.175781 -0.351562 -4.75 C -0.03125 -4.324219 0.128906 -3.78125 0.128906 -3.121094 C 0.128906 -2.28125 -0.125 -1.617188 -0.640625 -1.132812 C -1.152344 -0.640625 -1.875 -0.398438 -2.804688 -0.402344 C -3.761719 -0.398438 -4.503906 -0.644531 -5.035156 -1.144531 C -5.5625 -1.636719 -5.828125 -2.277344 -5.832031 -3.066406 C -5.828125 -3.824219 -5.570312 -4.449219 -5.050781 -4.933594 C -4.53125 -5.417969 -3.800781 -5.660156 -2.863281 -5.660156 C -2.804688 -5.660156 -2.71875 -5.65625 -2.605469 -5.65625 L -2.605469 -1.402344 C -1.976562 -1.433594 -1.496094 -1.613281 -1.164062 -1.933594 C -0.828125 -2.25 -0.660156 -2.644531 -0.664062 -3.125 C -0.660156 -3.476562 -0.753906 -3.78125 -0.941406 -4.03125 C -1.125 -4.28125 -1.421875 -4.480469 -1.835938 -4.628906 Z M -3.398438 -1.457031 L -3.398438 -4.640625 C -3.878906 -4.597656 -4.238281 -4.472656 -4.480469 -4.273438 C -4.851562 -3.960938 -5.039062 -3.5625 -5.039062 -3.078125 C -5.039062 -2.628906 -4.890625 -2.257812 -4.59375 -1.957031 C -4.296875 -1.652344 -3.898438 -1.484375 -3.398438 -1.457031 Z M -3.398438 -1.457031 "/>
</g>
<g id="glyph-2-2">
<path d="M 0 -0.726562 L -5.703125 -0.726562 L -5.703125 -1.59375 L -4.894531 -1.59375 C -5.515625 -2.011719 -5.828125 -2.617188 -5.832031 -3.410156 C -5.828125 -3.753906 -5.765625 -4.066406 -5.644531 -4.355469 C -5.519531 -4.640625 -5.359375 -4.859375 -5.160156 -5.003906 C -4.957031 -5.144531 -4.71875 -5.242188 -4.445312 -5.304688 C -4.265625 -5.335938 -3.953125 -5.355469 -3.507812 -5.359375 L 0 -5.359375 L 0 -4.394531 L -3.46875 -4.394531 C -3.863281 -4.394531 -4.15625 -4.355469 -4.351562 -4.28125 C -4.542969 -4.203125 -4.699219 -4.070312 -4.820312 -3.878906 C -4.933594 -3.6875 -4.992188 -3.460938 -4.996094 -3.207031 C -4.992188 -2.792969 -4.859375 -2.4375 -4.601562 -2.140625 C -4.335938 -1.835938 -3.84375 -1.6875 -3.117188 -1.691406 L 0 -1.691406 Z M 0 -0.726562 "/>
</g>
<g id="glyph-2-3">
<path d="M -1.703125 -0.339844 L -1.851562 -1.292969 C -1.46875 -1.34375 -1.171875 -1.492188 -0.96875 -1.742188 C -0.761719 -1.984375 -0.660156 -2.328125 -0.664062 -2.773438 C -0.660156 -3.210938 -0.75 -3.539062 -0.933594 -3.757812 C -1.113281 -3.96875 -1.328125 -4.078125 -1.574219 -4.082031 C -1.789062 -4.078125 -1.960938 -3.984375 -2.089844 -3.796875 C -2.171875 -3.664062 -2.28125 -3.332031 -2.417969 -2.808594 C -2.59375 -2.097656 -2.75 -1.609375 -2.882812 -1.335938 C -3.011719 -1.0625 -3.191406 -0.851562 -3.421875 -0.710938 C -3.652344 -0.566406 -3.90625 -0.496094 -4.1875 -0.5 C -4.441406 -0.496094 -4.675781 -0.554688 -4.894531 -0.671875 C -5.105469 -0.785156 -5.289062 -0.945312 -5.4375 -1.148438 C -5.546875 -1.296875 -5.636719 -1.5 -5.714844 -1.761719 C -5.789062 -2.019531 -5.828125 -2.300781 -5.832031 -2.601562 C -5.828125 -3.046875 -5.765625 -3.4375 -5.636719 -3.777344 C -5.507812 -4.113281 -5.332031 -4.363281 -5.113281 -4.527344 C -4.890625 -4.6875 -4.597656 -4.796875 -4.234375 -4.859375 L -4.101562 -3.914062 C -4.394531 -3.871094 -4.621094 -3.746094 -4.789062 -3.542969 C -4.953125 -3.335938 -5.039062 -3.042969 -5.039062 -2.667969 C -5.039062 -2.222656 -4.964844 -1.90625 -4.816406 -1.71875 C -4.667969 -1.523438 -4.496094 -1.429688 -4.300781 -1.433594 C -4.175781 -1.429688 -4.0625 -1.46875 -3.964844 -1.550781 C -3.859375 -1.628906 -3.773438 -1.753906 -3.707031 -1.921875 C -3.667969 -2.015625 -3.585938 -2.300781 -3.460938 -2.777344 C -3.273438 -3.460938 -3.121094 -3.9375 -3.007812 -4.207031 C -2.890625 -4.476562 -2.722656 -4.6875 -2.5 -4.84375 C -2.277344 -4.996094 -2.003906 -5.074219 -1.675781 -5.074219 C -1.351562 -5.074219 -1.046875 -4.980469 -0.765625 -4.792969 C -0.480469 -4.605469 -0.261719 -4.332031 -0.105469 -3.980469 C 0.0507812 -3.621094 0.128906 -3.222656 0.128906 -2.777344 C 0.128906 -2.035156 -0.0234375 -1.46875 -0.332031 -1.082031 C -0.640625 -0.691406 -1.097656 -0.445312 -1.703125 -0.339844 Z M -1.703125 -0.339844 "/>
</g>
<g id="glyph-2-4">
<path d="M -6.761719 -0.730469 L -7.875 -0.730469 L -7.875 -1.699219 L -6.761719 -1.699219 Z M 0 -0.730469 L -5.703125 -0.730469 L -5.703125 -1.699219 L 0 -1.695312 Z M 0 -0.730469 "/>
</g>
<g id="glyph-2-5">
<path d="M -0.863281 -2.835938 L -0.0117188 -2.976562 C 0.0429688 -2.703125 0.0703125 -2.457031 0.0742188 -2.246094 C 0.0703125 -1.890625 0.0195312 -1.621094 -0.0898438 -1.429688 C -0.199219 -1.234375 -0.347656 -1.097656 -0.527344 -1.019531 C -0.707031 -0.941406 -1.085938 -0.902344 -1.671875 -0.902344 L -4.953125 -0.902344 L -4.953125 -0.195312 L -5.703125 -0.195312 L -5.703125 -0.902344 L -7.117188 -0.902344 L -7.695312 -1.863281 L -5.703125 -1.863281 L -5.703125 -2.835938 L -4.953125 -2.835938 L -4.953125 -1.863281 L -1.617188 -1.863281 C -1.339844 -1.863281 -1.160156 -1.878906 -1.082031 -1.914062 C -1 -1.945312 -0.9375 -2 -0.894531 -2.078125 C -0.847656 -2.152344 -0.824219 -2.261719 -0.828125 -2.410156 C -0.824219 -2.515625 -0.835938 -2.660156 -0.863281 -2.835938 Z M -0.863281 -2.835938 "/>
</g>
<g id="glyph-2-6">
<path d="M 2.195312 -0.683594 L 1.289062 -0.574219 C 1.34375 -0.785156 1.371094 -0.96875 1.375 -1.128906 C 1.371094 -1.339844 1.335938 -1.511719 1.265625 -1.640625 C 1.195312 -1.769531 1.09375 -1.875 0.96875 -1.960938 C 0.867188 -2.019531 0.628906 -2.117188 0.246094 -2.257812 C 0.191406 -2.269531 0.113281 -2.300781 0.0117188 -2.34375 L -5.703125 -0.175781 L -5.703125 -1.21875 L -2.402344 -2.40625 C -1.980469 -2.558594 -1.539062 -2.695312 -1.078125 -2.820312 C -1.523438 -2.925781 -1.957031 -3.058594 -2.378906 -3.21875 L -5.703125 -4.4375 L -5.703125 -5.402344 L 0.0976562 -3.234375 C 0.71875 -3 1.148438 -2.816406 1.390625 -2.691406 C 1.707031 -2.515625 1.941406 -2.320312 2.09375 -2.097656 C 2.238281 -1.875 2.3125 -1.609375 2.316406 -1.304688 C 2.3125 -1.117188 2.273438 -0.910156 2.195312 -0.683594 Z M 2.195312 -0.683594 "/>
</g>
</g>
<clipPath id="clip-0">
<path clip-rule="nonzero" d="M 35.574219 5.480469 L 498.523438 5.480469 L 498.523438 256.511719 L 35.574219 256.511719 Z M 35.574219 5.480469 "/>
</clipPath>
<clipPath id="clip-1">
<path clip-rule="nonzero" d="M 35.574219 216 L 498.523438 216 L 498.523438 218 L 35.574219 218 Z M 35.574219 216 "/>
</clipPath>
<clipPath id="clip-2">
<path clip-rule="nonzero" d="M 35.574219 160 L 498.523438 160 L 498.523438 161 L 35.574219 161 Z M 35.574219 160 "/>
</clipPath>
<clipPath id="clip-3">
<path clip-rule="nonzero" d="M 35.574219 103 L 498.523438 103 L 498.523438 105 L 35.574219 105 Z M 35.574219 103 "/>
</clipPath>
<clipPath id="clip-4">
<path clip-rule="nonzero" d="M 35.574219 47 L 498.523438 47 L 498.523438 48 L 35.574219 48 Z M 35.574219 47 "/>
</clipPath>
<clipPath id="clip-5">
<path clip-rule="nonzero" d="M 50 5.480469 L 52 5.480469 L 52 256.511719 L 50 256.511719 Z M 50 5.480469 "/>
</clipPath>
<clipPath id="clip-6">
<path clip-rule="nonzero" d="M 180 5.480469 L 182 5.480469 L 182 256.511719 L 180 256.511719 Z M 180 5.480469 "/>
</clipPath>
<clipPath id="clip-7">
<path clip-rule="nonzero" d="M 310 5.480469 L 311 5.480469 L 311 256.511719 L 310 256.511719 Z M 310 5.480469 "/>
</clipPath>
<clipPath id="clip-8">
<path clip-rule="nonzero" d="M 440 5.480469 L 441 5.480469 L 441 256.511719 L 440 256.511719 Z M 440 5.480469 "/>
</clipPath>
<clipPath id="clip-9">
<path clip-rule="nonzero" d="M 35.574219 244 L 498.523438 244 L 498.523438 246 L 35.574219 246 Z M 35.574219 244 "/>
</clipPath>
<clipPath id="clip-10">
<path clip-rule="nonzero" d="M 35.574219 188 L 498.523438 188 L 498.523438 190 L 35.574219 190 Z M 35.574219 188 "/>
</clipPath>
<clipPath id="clip-11">
<path clip-rule="nonzero" d="M 35.574219 131 L 498.523438 131 L 498.523438 133 L 35.574219 133 Z M 35.574219 131 "/>
</clipPath>
<clipPath id="clip-12">
<path clip-rule="nonzero" d="M 35.574219 75 L 498.523438 75 L 498.523438 77 L 35.574219 77 Z M 35.574219 75 "/>
</clipPath>
<clipPath id="clip-13">
<path clip-rule="nonzero" d="M 35.574219 18 L 498.523438 18 L 498.523438 20 L 35.574219 20 Z M 35.574219 18 "/>
</clipPath>
<clipPath id="clip-14">
<path clip-rule="nonzero" d="M 115 5.480469 L 117 5.480469 L 117 256.511719 L 115 256.511719 Z M 115 5.480469 "/>
</clipPath>
<clipPath id="clip-15">
<path clip-rule="nonzero" d="M 245 5.480469 L 247 5.480469 L 247 256.511719 L 245 256.511719 Z M 245 5.480469 "/>
</clipPath>
<clipPath id="clip-16">
<path clip-rule="nonzero" d="M 374 5.480469 L 376 5.480469 L 376 256.511719 L 374 256.511719 Z M 374 5.480469 "/>
</clipPath>
</defs>
<rect x="-50.4" y="-28.8" width="604.8" height="345.6" fill="rgb(100%, 100%, 100%)" fill-opacity="1"/>
<rect x="-50.4" y="-28.8" width="604.8" height="345.6" fill="rgb(100%, 100%, 100%)" fill-opacity="1"/>
<path fill="none" stroke-width="1.066978" stroke-linecap="round" stroke-linejoin="round" stroke="rgb(100%, 100%, 100%)" stroke-opacity="1" stroke-miterlimit="10" d="M 0 288 L 504 288 L 504 0 L 0 0 Z M 0 288 "/>
<g clip-path="url(#clip-0)">
<path fill-rule="nonzero" fill="rgb(92.156863%, 92.156863%, 92.156863%)" fill-opacity="1" d="M 35.574219 256.507812 L 498.523438 256.507812 L 498.523438 5.476562 L 35.574219 5.476562 Z M 35.574219 256.507812 "/>
</g>
<g clip-path="url(#clip-1)">
<path fill="none" stroke-width="0.533489" stroke-linecap="butt" stroke-linejoin="round" stroke="rgb(100%, 100%, 100%)" stroke-opacity="1" stroke-miterlimit="10" d="M 35.574219 216.867188 L 498.519531 216.867188 "/>
</g>
<g clip-path="url(#clip-2)">
<path fill="none" stroke-width="0.533489" stroke-linecap="butt" stroke-linejoin="round" stroke="rgb(100%, 100%, 100%)" stroke-opacity="1" stroke-miterlimit="10" d="M 35.574219 160.410156 L 498.519531 160.410156 "/>
</g>
<g clip-path="url(#clip-3)">
<path fill="none" stroke-width="0.533489" stroke-linecap="butt" stroke-linejoin="round" stroke="rgb(100%, 100%, 100%)" stroke-opacity="1" stroke-miterlimit="10" d="M 35.574219 103.949219 L 498.519531 103.949219 "/>
</g>
<g clip-path="url(#clip-4)">
<path fill="none" stroke-width="0.533489" stroke-linecap="butt" stroke-linejoin="round" stroke="rgb(100%, 100%, 100%)" stroke-opacity="1" stroke-miterlimit="10" d="M 35.574219 47.488281 L 498.519531 47.488281 "/>
</g>
<g clip-path="url(#clip-5)">
<path fill="none" stroke-width="0.533489" stroke-linecap="butt" stroke-linejoin="round" stroke="rgb(100%, 100%, 100%)" stroke-opacity="1" stroke-miterlimit="10" d="M 51.152344 256.507812 L 51.152344 5.480469 "/>
</g>
<g clip-path="url(#clip-6)">
<path fill="none" stroke-width="0.533489" stroke-linecap="butt" stroke-linejoin="round" stroke="rgb(100%, 100%, 100%)" stroke-opacity="1" stroke-miterlimit="10" d="M 180.875 256.507812 L 180.875 5.480469 "/>
</g>
<g clip-path="url(#clip-7)">
<path fill="none" stroke-width="0.533489" stroke-linecap="butt" stroke-linejoin="round" stroke="rgb(100%, 100%, 100%)" stroke-opacity="1" stroke-miterlimit="10" d="M 310.597656 256.507812 L 310.597656 5.480469 "/>
</g>
<g clip-path="url(#clip-8)">
<path fill="none" stroke-width="0.533489" stroke-linecap="butt" stroke-linejoin="round" stroke="rgb(100%, 100%, 100%)" stroke-opacity="1" stroke-miterlimit="10" d="M 440.320312 256.507812 L 440.320312 5.480469 "/>
</g>
<g clip-path="url(#clip-9)">
<path fill="none" stroke-width="1.066978" stroke-linecap="butt" stroke-linejoin="round" stroke="rgb(100%, 100%, 100%)" stroke-opacity="1" stroke-miterlimit="10" d="M 35.574219 245.097656 L 498.519531 245.097656 "/>
</g>
<g clip-path="url(#clip-10)">
<path fill="none" stroke-width="1.066978" stroke-linecap="butt" stroke-linejoin="round" stroke="rgb(100%, 100%, 100%)" stroke-opacity="1" stroke-miterlimit="10" d="M 35.574219 188.636719 L 498.519531 188.636719 "/>
</g>
<g clip-path="url(#clip-11)">
<path fill="none" stroke-width="1.066978" stroke-linecap="butt" stroke-linejoin="round" stroke="rgb(100%, 100%, 100%)" stroke-opacity="1" stroke-miterlimit="10" d="M 35.574219 132.179688 L 498.519531 132.179688 "/>
</g>
<g clip-path="url(#clip-12)">
<path fill="none" stroke-width="1.066978" stroke-linecap="butt" stroke-linejoin="round" stroke="rgb(100%, 100%, 100%)" stroke-opacity="1" stroke-miterlimit="10" d="M 35.574219 75.71875 L 498.519531 75.71875 "/>
</g>
<g clip-path="url(#clip-13)">
<path fill="none" stroke-width="1.066978" stroke-linecap="butt" stroke-linejoin="round" stroke="rgb(100%, 100%, 100%)" stroke-opacity="1" stroke-miterlimit="10" d="M 35.574219 19.257812 L 498.519531 19.257812 "/>
</g>
<g clip-path="url(#clip-14)">
<path fill="none" stroke-width="1.066978" stroke-linecap="butt" stroke-linejoin="round" stroke="rgb(100%, 100%, 100%)" stroke-opacity="1" stroke-miterlimit="10" d="M 116.015625 256.507812 L 116.015625 5.480469 "/>
</g>
<g clip-path="url(#clip-15)">
<path fill="none" stroke-width="1.066978" stroke-linecap="butt" stroke-linejoin="round" stroke="rgb(100%, 100%, 100%)" stroke-opacity="1" stroke-miterlimit="10" d="M 245.738281 256.507812 L 245.738281 5.480469 "/>
</g>
<g clip-path="url(#clip-16)">
<path fill="none" stroke-width="1.066978" stroke-linecap="butt" stroke-linejoin="round" stroke="rgb(100%, 100%, 100%)" stroke-opacity="1" stroke-miterlimit="10" d="M 375.460938 256.507812 L 375.460938 5.480469 "/>
</g>
<path fill="none" stroke-width="1.066978" stroke-linecap="butt" stroke-linejoin="round" stroke="rgb(0%, 0%, 0%)" stroke-opacity="1" stroke-miterlimit="10" d="M 56.617188 244.941406 L 58.261719 244.941406 L 59.085938 244.949219 L 59.910156 244.953125 L 60.734375 244.960938 L 61.558594 244.972656 L 62.382812 244.980469 L 63.203125 244.992188 L 64.851562 245.015625 L 65.675781 245.023438 L 66.5 245.035156 L 67.324219 245.042969 L 68.144531 245.050781 L 69.792969 245.066406 L 73.089844 245.082031 L 75.558594 245.082031 L 78.03125 245.070312 L 78.851562 245.0625 L 80.5 245.039062 L 82.148438 245.007812 L 82.972656 244.984375 L 83.792969 244.960938 L 85.441406 244.898438 L 86.265625 244.859375 L 87.914062 244.773438 L 88.738281 244.722656 L 89.558594 244.671875 L 90.382812 244.617188 L 92.855469 244.441406 L 93.679688 244.378906 L 94.5 244.316406 L 96.148438 244.191406 L 96.972656 244.132812 L 97.796875 244.070312 L 98.621094 244.011719 L 99.441406 243.949219 L 100.265625 243.894531 L 101.914062 243.777344 L 104.386719 243.613281 L 105.207031 243.558594 L 106.03125 243.503906 L 106.855469 243.453125 L 108.503906 243.34375 L 109.328125 243.292969 L 110.148438 243.234375 L 110.972656 243.175781 L 111.796875 243.113281 L 112.621094 243.046875 L 113.445312 242.972656 L 114.269531 242.894531 L 115.09375 242.804688 L 115.914062 242.707031 L 116.738281 242.597656 L 117.5625 242.476562 L 118.386719 242.34375 L 119.210938 242.199219 L 120.035156 242.039062 L 120.855469 241.867188 L 121.679688 241.6875 L 122.503906 241.492188 L 123.328125 241.292969 L 124.152344 241.085938 L 124.976562 240.871094 L 125.796875 240.65625 L 126.621094 240.441406 L 127.445312 240.222656 L 128.269531 240.011719 L 129.09375 239.804688 L 129.917969 239.601562 L 130.742188 239.402344 L 131.5625 239.207031 L 132.386719 239.019531 L 133.210938 238.835938 L 134.035156 238.65625 L 135.683594 238.289062 L 136.503906 238.101562 L 137.328125 237.910156 L 138.152344 237.707031 L 138.976562 237.496094 L 139.800781 237.265625 L 140.625 237.019531 L 141.445312 236.757812 L 142.269531 236.472656 L 143.09375 236.164062 L 143.917969 235.832031 L 144.742188 235.46875 L 145.566406 235.082031 L 146.390625 234.65625 L 147.210938 234.199219 L 148.035156 233.707031 L 148.859375 233.183594 L 149.683594 232.625 L 150.507812 232.03125 L 151.332031 231.40625 L 152.152344 230.746094 L 152.976562 230.054688 L 153.800781 229.332031 L 154.625 228.582031 L 155.449219 227.804688 L 156.273438 227.007812 L 157.09375 226.1875 L 157.917969 225.347656 L 158.742188 224.484375 L 159.566406 223.609375 L 160.390625 222.710938 L 161.214844 221.800781 L 162.039062 220.875 L 162.859375 219.933594 L 163.683594 218.980469 L 164.507812 218.015625 L 165.332031 217.039062 L 166.15625 216.054688 L 166.980469 215.0625 L 167.800781 214.058594 L 168.625 213.054688 L 169.449219 212.046875 L 170.273438 211.035156 L 171.097656 210.019531 L 171.921875 209.007812 L 172.742188 207.992188 L 173.566406 206.976562 L 174.390625 205.957031 L 175.214844 204.929688 L 176.039062 203.894531 L 176.863281 202.847656 L 177.6875 201.78125 L 178.507812 200.695312 L 179.332031 199.585938 L 180.15625 198.4375 L 180.980469 197.253906 L 181.804688 196.027344 L 182.628906 194.757812 L 183.449219 193.445312 L 184.273438 192.082031 L 185.097656 190.667969 L 185.921875 189.207031 L 186.746094 187.695312 L 187.570312 186.140625 L 188.390625 184.546875 L 189.214844 182.917969 L 190.039062 181.261719 L 190.863281 179.582031 L 191.6875 177.882812 L 192.511719 176.167969 L 193.335938 174.445312 L 194.15625 172.714844 L 194.980469 170.980469 L 196.628906 167.503906 L 197.453125 165.757812 L 198.277344 164.007812 L 199.097656 162.25 L 199.921875 160.484375 L 200.746094 158.703125 L 201.570312 156.90625 L 202.394531 155.09375 L 203.21875 153.261719 L 204.039062 151.402344 L 204.863281 149.515625 L 205.6875 147.59375 L 206.511719 145.636719 L 207.335938 143.632812 L 208.160156 141.574219 L 208.984375 139.464844 L 209.804688 137.296875 L 210.628906 135.0625 L 211.453125 132.765625 L 212.277344 130.398438 L 213.101562 127.964844 L 213.925781 125.464844 L 214.746094 122.90625 L 215.570312 120.308594 L 216.394531 117.675781 L 217.21875 115.027344 L 218.042969 112.371094 L 218.867188 109.726562 L 219.691406 107.109375 L 220.511719 104.539062 L 221.335938 102.03125 L 222.160156 99.59375 L 222.984375 97.238281 L 223.808594 94.96875 L 224.632812 92.796875 L 225.453125 90.71875 L 226.277344 88.746094 L 227.101562 86.878906 L 227.925781 85.117188 L 228.75 83.453125 L 229.574219 81.875 L 230.394531 80.378906 L 231.21875 78.960938 L 232.042969 77.613281 L 232.867188 76.324219 L 233.691406 75.085938 L 234.515625 73.890625 L 235.339844 72.71875 L 236.160156 71.5625 L 236.984375 70.40625 L 237.808594 69.246094 L 238.632812 68.070312 L 239.457031 66.867188 L 240.28125 65.632812 L 241.101562 64.359375 L 241.925781 63.042969 L 242.75 61.691406 L 243.574219 60.300781 L 244.398438 58.875 L 245.222656 57.417969 L 246.042969 55.9375 L 246.867188 54.441406 L 247.691406 52.9375 L 248.515625 51.429688 L 249.339844 49.929688 L 250.164062 48.433594 L 250.988281 46.953125 L 251.808594 45.488281 L 252.632812 44.035156 L 253.457031 42.59375 L 254.28125 41.160156 L 255.929688 38.308594 L 256.75 36.875 L 257.574219 35.4375 L 258.398438 33.988281 L 259.222656 32.535156 L 260.046875 31.074219 L 260.871094 29.617188 L 261.691406 28.171875 L 262.515625 26.75 L 263.339844 25.371094 L 264.164062 24.046875 L 264.988281 22.796875 L 265.8125 21.632812 L 266.636719 20.574219 L 267.457031 19.640625 L 268.28125 18.851562 L 269.105469 18.195312 L 269.929688 17.679688 L 270.753906 17.300781 L 271.578125 17.046875 L 272.398438 16.914062 L 273.222656 16.890625 L 274.046875 16.960938 L 274.871094 17.109375 L 275.695312 17.3125 L 276.519531 17.558594 L 277.339844 17.828125 L 278.164062 18.117188 L 278.988281 18.417969 L 279.8125 18.730469 L 280.636719 19.058594 L 281.460938 19.414062 L 282.285156 19.800781 L 283.105469 20.238281 L 283.929688 20.742188 L 284.753906 21.324219 L 285.578125 22 L 286.402344 22.78125 L 287.226562 23.683594 L 288.046875 24.730469 L 288.871094 25.902344 L 289.695312 27.203125 L 290.519531 28.621094 L 291.34375 30.148438 L 292.167969 31.769531 L 292.988281 33.46875 L 293.8125 35.230469 L 294.636719 37.042969 L 295.460938 38.878906 L 297.109375 42.566406 L 297.933594 44.402344 L 298.753906 46.21875 L 299.578125 48.015625 L 300.402344 49.792969 L 301.226562 51.550781 L 302.050781 53.300781 L 302.875 55.046875 L 303.695312 56.800781 L 304.519531 58.5625 L 305.34375 60.347656 L 306.167969 62.160156 L 306.992188 64.003906 L 307.816406 65.890625 L 308.640625 67.828125 L 309.460938 69.8125 L 310.285156 71.851562 L 311.109375 73.9375 L 311.933594 76.078125 L 312.757812 78.269531 L 313.582031 80.507812 L 314.402344 82.792969 L 315.226562 85.125 L 316.050781 87.484375 L 316.875 89.871094 L 317.699219 92.273438 L 318.523438 94.679688 L 319.34375 97.082031 L 320.167969 99.464844 L 320.992188 101.824219 L 321.816406 104.140625 L 322.640625 106.40625 L 323.464844 108.617188 L 324.289062 110.765625 L 325.109375 112.855469 L 325.933594 114.882812 L 326.757812 116.847656 L 327.582031 118.753906 L 328.40625 120.605469 L 329.230469 122.410156 L 330.050781 124.183594 L 330.875 125.929688 L 331.699219 127.660156 L 332.523438 129.386719 L 333.347656 131.109375 L 334.171875 132.84375 L 334.992188 134.59375 L 335.816406 136.367188 L 336.640625 138.164062 L 337.464844 139.988281 L 338.289062 141.835938 L 339.113281 143.714844 L 339.9375 145.613281 L 340.757812 147.53125 L 341.582031 149.46875 L 344.054688 155.316406 L 344.878906 157.261719 L 345.699219 159.191406 L 346.523438 161.101562 L 347.347656 162.996094 L 348.171875 164.863281 L 348.996094 166.707031 L 349.820312 168.523438 L 350.640625 170.316406 L 351.464844 172.089844 L 352.289062 173.84375 L 353.113281 175.578125 L 353.9375 177.300781 L 354.761719 179.007812 L 355.585938 180.703125 L 356.40625 182.386719 L 357.230469 184.054688 L 358.054688 185.710938 L 358.878906 187.347656 L 359.703125 188.960938 L 360.527344 190.546875 L 361.347656 192.105469 L 362.171875 193.617188 L 362.996094 195.09375 L 363.820312 196.519531 L 364.644531 197.902344 L 365.46875 199.238281 L 366.289062 200.527344 L 367.113281 201.769531 L 367.9375 202.972656 L 368.761719 204.128906 L 369.585938 205.25 L 370.410156 206.339844 L 371.234375 207.410156 L 372.054688 208.460938 L 372.878906 209.496094 L 373.703125 210.519531 L 374.527344 211.539062 L 375.351562 212.550781 L 376.175781 213.558594 L 376.996094 214.5625 L 377.820312 215.5625 L 378.644531 216.558594 L 379.46875 217.542969 L 380.292969 218.515625 L 381.117188 219.472656 L 381.9375 220.410156 L 382.761719 221.328125 L 383.585938 222.21875 L 384.410156 223.085938 L 385.234375 223.925781 L 386.058594 224.738281 L 386.882812 225.523438 L 387.703125 226.28125 L 388.527344 227.011719 L 389.351562 227.710938 L 390.175781 228.386719 L 391 229.039062 L 391.824219 229.671875 L 392.644531 230.285156 L 393.46875 230.878906 L 394.292969 231.457031 L 395.117188 232.015625 L 395.941406 232.558594 L 396.765625 233.085938 L 397.589844 233.597656 L 398.410156 234.101562 L 399.234375 234.589844 L 400.058594 235.066406 L 400.882812 235.53125 L 401.707031 235.984375 L 402.53125 236.425781 L 403.351562 236.859375 L 404.175781 237.277344 L 405 237.6875 L 405.824219 238.089844 L 406.648438 238.476562 L 407.472656 238.851562 L 408.292969 239.214844 L 409.117188 239.558594 L 409.941406 239.886719 L 410.765625 240.199219 L 411.589844 240.488281 L 412.414062 240.761719 L 413.238281 241.011719 L 414.058594 241.242188 L 414.882812 241.449219 L 415.707031 241.636719 L 416.53125 241.796875 L 417.355469 241.941406 L 418.179688 242.066406 L 419 242.171875 L 419.824219 242.265625 L 420.648438 242.34375 L 421.472656 242.410156 L 422.296875 242.46875 L 423.121094 242.515625 L 423.941406 242.5625 L 424.765625 242.601562 L 425.589844 242.644531 L 428.0625 242.761719 L 428.886719 242.808594 L 429.707031 242.855469 L 430.53125 242.902344 L 432.179688 243.011719 L 433.828125 243.136719 L 434.648438 243.203125 L 436.296875 243.34375 L 437.121094 243.421875 L 437.945312 243.496094 L 438.769531 243.578125 L 439.589844 243.65625 L 441.238281 243.820312 L 442.0625 243.898438 L 442.886719 243.980469 L 443.710938 244.058594 L 444.535156 244.132812 L 445.355469 244.203125 L 446.179688 244.273438 L 447.003906 244.339844 L 448.652344 244.457031 L 449.476562 244.511719 L 450.296875 244.558594 L 451.945312 244.644531 L 453.59375 244.714844 L 454.417969 244.746094 L 455.238281 244.773438 L 456.886719 244.828125 L 457.710938 244.851562 L 458.535156 244.871094 L 459.359375 244.894531 L 460.183594 244.910156 L 461.003906 244.929688 L 461.828125 244.941406 L 462.652344 244.957031 L 463.476562 244.96875 L 465.125 244.984375 L 465.945312 244.988281 L 468.417969 244.988281 L 470.066406 244.980469 L 470.886719 244.972656 L 471.710938 244.96875 L 473.359375 244.953125 L 475.832031 244.941406 L 476.652344 244.9375 L 477.476562 244.9375 "/>
<g fill="rgb(30.196078%, 30.196078%, 30.196078%)" fill-opacity="1">
<use xlink:href="#glyph-0-0" x="18.40625" y="248.25"/>
<use xlink:href="#glyph-0-1" x="23.300391" y="248.25"/>
<use xlink:href="#glyph-0-0" x="25.745312" y="248.25"/>
</g>
<g fill="rgb(30.196078%, 30.196078%, 30.196078%)" fill-opacity="1">
<use xlink:href="#glyph-0-0" x="18.40625" y="191.789062"/>
<use xlink:href="#glyph-0-1" x="23.300391" y="191.789062"/>
<use xlink:href="#glyph-0-2" x="25.745312" y="191.789062"/>
</g>
<g fill="rgb(30.196078%, 30.196078%, 30.196078%)" fill-opacity="1">
<use xlink:href="#glyph-0-0" x="18.40625" y="135.328125"/>
<use xlink:href="#glyph-0-1" x="23.300391" y="135.328125"/>
<use xlink:href="#glyph-0-3" x="25.745312" y="135.328125"/>
</g>
<g fill="rgb(30.196078%, 30.196078%, 30.196078%)" fill-opacity="1">
<use xlink:href="#glyph-0-0" x="18.40625" y="78.867188"/>
<use xlink:href="#glyph-0-1" x="23.300391" y="78.867188"/>
<use xlink:href="#glyph-0-4" x="25.745312" y="78.867188"/>
</g>
<g fill="rgb(30.196078%, 30.196078%, 30.196078%)" fill-opacity="1">
<use xlink:href="#glyph-0-0" x="18.40625" y="22.40625"/>
<use xlink:href="#glyph-0-1" x="23.300391" y="22.40625"/>
<use xlink:href="#glyph-0-5" x="25.745312" y="22.40625"/>
</g>
<path fill="none" stroke-width="1.066978" stroke-linecap="butt" stroke-linejoin="round" stroke="rgb(20%, 20%, 20%)" stroke-opacity="1" stroke-miterlimit="10" d="M 32.832031 245.097656 L 35.574219 245.097656 "/>
<path fill="none" stroke-width="1.066978" stroke-linecap="butt" stroke-linejoin="round" stroke="rgb(20%, 20%, 20%)" stroke-opacity="1" stroke-miterlimit="10" d="M 32.832031 188.636719 L 35.574219 188.636719 "/>
<path fill="none" stroke-width="1.066978" stroke-linecap="butt" stroke-linejoin="round" stroke="rgb(20%, 20%, 20%)" stroke-opacity="1" stroke-miterlimit="10" d="M 32.832031 132.179688 L 35.574219 132.179688 "/>
<path fill="none" stroke-width="1.066978" stroke-linecap="butt" stroke-linejoin="round" stroke="rgb(20%, 20%, 20%)" stroke-opacity="1" stroke-miterlimit="10" d="M 32.832031 75.71875 L 35.574219 75.71875 "/>
<path fill="none" stroke-width="1.066978" stroke-linecap="butt" stroke-linejoin="round" stroke="rgb(20%, 20%, 20%)" stroke-opacity="1" stroke-miterlimit="10" d="M 32.832031 19.257812 L 35.574219 19.257812 "/>
<path fill="none" stroke-width="1.066978" stroke-linecap="butt" stroke-linejoin="round" stroke="rgb(20%, 20%, 20%)" stroke-opacity="1" stroke-miterlimit="10" d="M 116.015625 259.25 L 116.015625 256.507812 "/>
<path fill="none" stroke-width="1.066978" stroke-linecap="butt" stroke-linejoin="round" stroke="rgb(20%, 20%, 20%)" stroke-opacity="1" stroke-miterlimit="10" d="M 245.738281 259.25 L 245.738281 256.507812 "/>
<path fill="none" stroke-width="1.066978" stroke-linecap="butt" stroke-linejoin="round" stroke="rgb(20%, 20%, 20%)" stroke-opacity="1" stroke-miterlimit="10" d="M 375.460938 259.25 L 375.460938 256.507812 "/>
<g fill="rgb(30.196078%, 30.196078%, 30.196078%)" fill-opacity="1">
<use xlink:href="#glyph-0-0" x="109.898438" y="267.738281"/>
<use xlink:href="#glyph-0-1" x="114.792578" y="267.738281"/>
<use xlink:href="#glyph-0-0" x="117.2375" y="267.738281"/>
</g>
<g fill="rgb(30.196078%, 30.196078%, 30.196078%)" fill-opacity="1">
<use xlink:href="#glyph-0-3" x="239.621094" y="267.738281"/>
<use xlink:href="#glyph-0-1" x="244.515234" y="267.738281"/>
<use xlink:href="#glyph-0-6" x="246.960156" y="267.738281"/>
</g>
<g fill="rgb(30.196078%, 30.196078%, 30.196078%)" fill-opacity="1">
<use xlink:href="#glyph-0-6" x="369.34375" y="267.738281"/>
<use xlink:href="#glyph-0-1" x="374.237891" y="267.738281"/>
<use xlink:href="#glyph-0-0" x="376.682812" y="267.738281"/>
</g>
<g fill="rgb(0%, 0%, 0%)" fill-opacity="1">
<use xlink:href="#glyph-1-0" x="260.929688" y="280.207031"/>
<use xlink:href="#glyph-1-1" x="267.047363" y="280.207031"/>
</g>
<g fill="rgb(0%, 0%, 0%)" fill-opacity="1">
<use xlink:href="#glyph-2-0" x="13.351562" y="148.421875"/>
<use xlink:href="#glyph-2-1" x="13.351562" y="142.304199"/>
<use xlink:href="#glyph-2-2" x="13.351562" y="136.186523"/>
<use xlink:href="#glyph-2-3" x="13.351563" y="130.068848"/>
<use xlink:href="#glyph-2-4" x="13.351563" y="124.568848"/>
<use xlink:href="#glyph-2-5" x="13.351563" y="122.125"/>
<use xlink:href="#glyph-2-6" x="13.351563" y="119.068848"/>
</g>
</svg>
