<?xml version="1.0" encoding="UTF-8" standalone="no"?>
<!-- Created with Inkscape (http://www.inkscape.org/) -->

<svg
   width="62.70499mm"
   height="36.52932mm"
   viewBox="0 0 62.70499 36.52932"
   version="1.1"
   id="svg2421"
   inkscape:version="1.2.1 (9c6d41e410, 2022-07-14)"
   sodipodi:docname="armed_or_age.svg"
   xmlns:inkscape="http://www.inkscape.org/namespaces/inkscape"
   xmlns:sodipodi="http://sodipodi.sourceforge.net/DTD/sodipodi-0.dtd"
   xmlns="http://www.w3.org/2000/svg"
   xmlns:svg="http://www.w3.org/2000/svg"
   xmlns:rdf="http://www.w3.org/1999/02/22-rdf-syntax-ns#"
   xmlns:cc="http://creativecommons.org/ns#"
   xmlns:dc="http://purl.org/dc/elements/1.1/">
  <defs
     id="defs2415" />
  <sodipodi:namedview
     id="base"
     pagecolor="#ffffff"
     bordercolor="#666666"
     borderopacity="1.0"
     inkscape:pageopacity="0.0"
     inkscape:pageshadow="2"
     inkscape:zoom="3.959798"
     inkscape:cx="68.690373"
     inkscape:cy="50.255089"
     inkscape:document-units="mm"
     inkscape:current-layer="layer1"
     showgrid="false"
     inkscape:window-width="1920"
     inkscape:window-height="1009"
     inkscape:window-x="1912"
     inkscape:window-y="-8"
     inkscape:window-maximized="1"
     inkscape:showpageshadow="2"
     inkscape:pagecheckerboard="0"
     inkscape:deskcolor="#d1d1d1" />
  <metadata
     id="metadata2418">
    <rdf:RDF>
      <cc:Work
         rdf:about="">
        <dc:format>image/svg+xml</dc:format>
        <dc:type
           rdf:resource="http://purl.org/dc/dcmitype/StillImage" />
      </cc:Work>
    </rdf:RDF>
  </metadata>
  <g
     inkscape:label="Layer 1"
     inkscape:groupmode="layer"
     id="layer1"
     transform="translate(-237.0106,-103.35439)">
    <path
       inkscape:connector-curvature="0"
       style="color:#000000;font-style:normal;font-variant:normal;font-weight:normal;font-stretch:normal;font-size:medium;line-height:normal;font-family:sans-serif;font-variant-ligatures:normal;font-variant-position:normal;font-variant-caps:normal;font-variant-numeric:normal;font-variant-alternates:normal;font-feature-settings:normal;text-indent:0;text-align:start;text-decoration:none;text-decoration-line:none;text-decoration-style:solid;text-decoration-color:#000000;letter-spacing:normal;word-spacing:normal;text-transform:none;writing-mode:lr-tb;direction:ltr;text-orientation:mixed;dominant-baseline:auto;baseline-shift:baseline;text-anchor:start;white-space:normal;shape-padding:0;clip-rule:nonzero;display:inline;overflow:visible;visibility:visible;opacity:1;isolation:auto;mix-blend-mode:normal;color-interpolation:sRGB;color-interpolation-filters:linearRGB;solid-color:#000000;solid-opacity:1;vector-effect:none;fill:#fdacff;fill-opacity:1;fill-rule:nonzero;stroke:#000000;stroke-width:0.5;stroke-linecap:round;stroke-linejoin:round;stroke-miterlimit:4;stroke-dasharray:none;stroke-dashoffset:0;stroke-opacity:1;color-rendering:auto;image-rendering:auto;shape-rendering:auto;text-rendering:auto;enable-background:accumulate"
       d="m 255.74681,103.60439 c -10.20382,0 -18.48621,8.06391 -18.48621,18.01388 0,9.94998 8.28239,18.01544 18.48621,18.01544 4.87612,0 9.31087,-1.84475 12.61577,-4.85397 3.30441,3.00911 7.73871,4.85397 12.61473,4.85397 10.20382,0 18.48828,-8.06546 18.48828,-18.01544 0,-9.94997 -8.28446,-18.01388 -18.48828,-18.01388 -4.87606,0 -9.31032,1.84476 -12.61473,4.85344 -3.30491,-3.00879 -7.73961,-4.85344 -12.61577,-4.85344 z"
       id="path919" />
    <path
       style="color:#000000;font-style:normal;font-variant:normal;font-weight:normal;font-stretch:normal;font-size:medium;line-height:normal;font-family:sans-serif;font-variant-ligatures:normal;font-variant-position:normal;font-variant-caps:normal;font-variant-numeric:normal;font-variant-alternates:normal;font-feature-settings:normal;text-indent:0;text-align:start;text-decoration:none;text-decoration-line:none;text-decoration-style:solid;text-decoration-color:#000000;letter-spacing:normal;word-spacing:normal;text-transform:none;writing-mode:lr-tb;direction:ltr;text-orientation:mixed;dominant-baseline:auto;baseline-shift:baseline;text-anchor:start;white-space:normal;shape-padding:0;clip-rule:nonzero;display:inline;overflow:visible;visibility:visible;opacity:1;isolation:auto;mix-blend-mode:normal;color-interpolation:sRGB;color-interpolation-filters:linearRGB;solid-color:#000000;solid-opacity:1;vector-effect:none;fill:none;fill-opacity:1;fill-rule:nonzero;stroke:none;stroke-width:0.5;stroke-linecap:round;stroke-linejoin:round;stroke-miterlimit:4;stroke-dasharray:none;stroke-dashoffset:0;stroke-opacity:1;color-rendering:auto;image-rendering:auto;shape-rendering:auto;text-rendering:auto;enable-background:accumulate"
       d="m 255.74681,104.10436 c 4.73605,0 9.03985,1.78242 12.25093,4.69221 -3.39777,3.26617 -5.50664,7.80298 -5.50664,12.82144 0,5.01857 2.10874,9.5558 5.50664,12.82248 -3.21108,2.91021 -7.51491,4.69325 -12.25093,4.69325 -9.9406,0 -17.9865,-7.84316 -17.9865,-17.51573 0,-9.67257 8.0459,-17.51365 17.9865,-17.51365 z"
       id="path917"
       inkscape:connector-curvature="0" />
    <path
       style="color:#000000;font-style:normal;font-variant:normal;font-weight:normal;font-stretch:normal;font-size:medium;line-height:normal;font-family:sans-serif;font-variant-ligatures:normal;font-variant-position:normal;font-variant-caps:normal;font-variant-numeric:normal;font-variant-alternates:normal;font-feature-settings:normal;text-indent:0;text-align:start;text-decoration:none;text-decoration-line:none;text-decoration-style:solid;text-decoration-color:#000000;letter-spacing:normal;word-spacing:normal;text-transform:none;writing-mode:lr-tb;direction:ltr;text-orientation:mixed;dominant-baseline:auto;baseline-shift:baseline;text-anchor:start;white-space:normal;shape-padding:0;clip-rule:nonzero;display:inline;overflow:visible;visibility:visible;opacity:1;isolation:auto;mix-blend-mode:normal;color-interpolation:sRGB;color-interpolation-filters:linearRGB;solid-color:#000000;solid-opacity:1;vector-effect:none;fill:none;fill-opacity:1;fill-rule:nonzero;stroke:none;stroke-width:0.5;stroke-linecap:round;stroke-linejoin:round;stroke-miterlimit:4;stroke-dasharray:none;stroke-dashoffset:0;stroke-opacity:1;color-rendering:auto;image-rendering:auto;shape-rendering:auto;text-rendering:auto;enable-background:accumulate"
       d="m 280.97731,104.10436 c 9.9406,0 17.98805,7.84108 17.98805,17.51365 0,9.67257 -8.04745,17.51573 -17.98805,17.51573 -4.73602,0 -9.03928,-1.78304 -12.2499,-4.69325 3.39837,-3.26668 5.50768,-7.80392 5.50768,-12.82248 0,-5.01844 -2.10943,-9.55527 -5.50768,-12.82144 3.21063,-2.90979 7.51385,-4.69221 12.2499,-4.69221 z"
       id="path915"
       inkscape:connector-curvature="0" />
    <path
       style="color:#000000;font-style:normal;font-variant:normal;font-weight:normal;font-stretch:normal;font-size:medium;line-height:normal;font-family:sans-serif;font-variant-ligatures:normal;font-variant-position:normal;font-variant-caps:normal;font-variant-numeric:normal;font-variant-alternates:normal;font-feature-settings:normal;text-indent:0;text-align:start;text-decoration:none;text-decoration-line:none;text-decoration-style:solid;text-decoration-color:#000000;letter-spacing:normal;word-spacing:normal;text-transform:none;writing-mode:lr-tb;direction:ltr;text-orientation:mixed;dominant-baseline:auto;baseline-shift:baseline;text-anchor:start;white-space:normal;shape-padding:0;clip-rule:nonzero;display:inline;overflow:visible;visibility:visible;opacity:1;isolation:auto;mix-blend-mode:normal;color-interpolation:sRGB;color-interpolation-filters:linearRGB;solid-color:#000000;solid-opacity:1;vector-effect:none;fill:#fdacff;fill-opacity:1;fill-rule:nonzero;stroke:#000000;stroke-width:0.5;stroke-linecap:round;stroke-linejoin:round;stroke-miterlimit:4;stroke-dasharray:none;stroke-dashoffset:0;stroke-opacity:1;color-rendering:auto;image-rendering:auto;shape-rendering:auto;text-rendering:auto;enable-background:accumulate"
       d="m 268.36258,109.13609 c 3.3155,3.17695 5.3728,7.59491 5.3728,12.48244 0,4.88763 -2.05718,9.30602 -5.3728,12.48348 -3.31514,-3.17746 -5.37177,-7.59585 -5.37177,-12.48348 0,-4.88753 2.05676,-9.30549 5.37177,-12.48244 z"
       id="path815"
       inkscape:connector-curvature="0" />
    <g
       aria-label="armed
unarmed"
       id="text819"
       style="font-size:4.93889px;line-height:1.25;letter-spacing:0px;word-spacing:0px;stroke-width:0.264583">
      <path
         d="m 244.49584,120.13349 v -0.51858 l -0.0494,-0.1136 v -0.92851 q 0,-0.24694 -0.15311,-0.38523 -0.14817,-0.13829 -0.45932,-0.13829 -0.21237,0 -0.4198,0.0691 -0.2025,0.0642 -0.34572,0.1778 l -0.27658,-0.53833 q 0.21731,-0.15311 0.52352,-0.23707 0.30621,-0.084 0.6223,-0.084 0.60748,0 0.94333,0.28645 0.33584,0.28646 0.33584,0.89394 v 1.51624 z m -0.80998,0.0395 q -0.31115,0 -0.5334,-0.10371 -0.22225,-0.10866 -0.34079,-0.2914 -0.11853,-0.18274 -0.11853,-0.40993 0,-0.23706 0.1136,-0.41486 0.11853,-0.1778 0.37041,-0.27658 0.25189,-0.10372 0.65687,-0.10372 h 0.70627 v 0.44944 h -0.6223 q -0.27164,0 -0.37536,0.0889 -0.0988,0.0889 -0.0988,0.22225 0,0.14817 0.1136,0.23707 0.11853,0.084 0.32102,0.084 0.19262,0 0.34573,-0.0889 0.1531,-0.0938 0.22225,-0.27164 l 0.11853,0.3556 q -0.084,0.25682 -0.30621,0.39017 -0.22225,0.13335 -0.57291,0.13335 z"
         style="font-weight:bold;font-family:Montserrat;-inkscape-font-specification:'Montserrat Bold';text-align:center;text-anchor:middle"
         id="path305" />
      <path
         d="m 245.9133,120.13349 v -2.65712 h 0.73589 v 0.75071 l -0.10371,-0.21731 q 0.11853,-0.28152 0.38029,-0.42475 0.26176,-0.14816 0.63712,-0.14816 v 0.7112 q -0.0494,-0.005 -0.0889,-0.005 -0.0395,-0.005 -0.084,-0.005 -0.31609,0 -0.51365,0.18274 -0.19261,0.1778 -0.19261,0.55809 v 1.25448 z"
         style="font-weight:bold;font-family:Montserrat;-inkscape-font-specification:'Montserrat Bold';text-align:center;text-anchor:middle"
         id="path307" />
      <path
         d="m 251.42698,117.43686 q 0.31609,0 0.55809,0.12841 0.24695,0.12347 0.38523,0.38523 0.14323,0.25682 0.14323,0.66181 v 1.52118 h -0.77046 v -1.40264 q 0,-0.32103 -0.13335,-0.47414 -0.13335,-0.1531 -0.37536,-0.1531 -0.16792,0 -0.30127,0.079 -0.13335,0.0741 -0.20744,0.22719 -0.0741,0.1531 -0.0741,0.39017 v 1.3335 h -0.77047 v -1.40264 q 0,-0.32103 -0.13335,-0.47414 -0.12841,-0.1531 -0.37041,-0.1531 -0.16793,0 -0.30128,0.079 -0.13335,0.0741 -0.20743,0.22719 -0.0741,0.1531 -0.0741,0.39017 v 1.3335 h -0.77047 v -2.65712 h 0.7359 v 0.72602 l -0.13829,-0.21238 q 0.13829,-0.27164 0.39017,-0.40992 0.25682,-0.14323 0.58279,-0.14323 0.36548,0 0.63712,0.18768 0.27657,0.18273 0.36547,0.56303 l -0.27164,-0.0741 q 0.13335,-0.31115 0.42475,-0.49389 0.29633,-0.18274 0.67663,-0.18274 z"
         style="font-weight:bold;font-family:Montserrat;-inkscape-font-specification:'Montserrat Bold';text-align:center;text-anchor:middle"
         id="path309" />
      <path
         d="m 254.54324,120.173 q -0.45437,0 -0.8001,-0.1778 -0.34078,-0.1778 -0.52846,-0.48401 -0.18768,-0.31115 -0.18768,-0.70626 0,-0.40005 0.18274,-0.70626 0.18768,-0.31115 0.50871,-0.48401 0.32103,-0.1778 0.72602,-0.1778 0.39017,0 0.70132,0.16792 0.31609,0.16298 0.49883,0.47413 0.18273,0.30621 0.18273,0.7359 0,0.0445 -0.005,0.10371 -0.005,0.0543 -0.01,0.10372 h -2.1583 v -0.44944 h 1.75331 l -0.29633,0.13335 q 0,-0.20743 -0.084,-0.36054 -0.084,-0.1531 -0.23212,-0.23706 -0.14817,-0.0889 -0.34573,-0.0889 -0.19755,0 -0.35066,0.0889 -0.14816,0.084 -0.23212,0.242 -0.084,0.15311 -0.084,0.36548 v 0.11853 q 0,0.21731 0.0938,0.38524 0.0988,0.16298 0.27164,0.25188 0.1778,0.084 0.41487,0.084 0.21237,0 0.37042,-0.0642 0.16298,-0.0642 0.29633,-0.19262 l 0.40993,0.4445 q -0.18274,0.20743 -0.45932,0.32103 -0.27658,0.10865 -0.63712,0.10865 z"
         style="font-weight:bold;font-family:Montserrat;-inkscape-font-specification:'Montserrat Bold';text-align:center;text-anchor:middle"
         id="path311" />
      <path
         d="m 257.48189,120.173 q -0.37536,0 -0.67663,-0.16792 -0.30127,-0.17286 -0.47907,-0.47907 -0.17287,-0.30621 -0.17287,-0.72108 0,-0.41981 0.17287,-0.72602 0.1778,-0.30621 0.47907,-0.47413 0.30127,-0.16792 0.67663,-0.16792 0.33584,0 0.58772,0.14816 0.25189,0.14817 0.39018,0.44944 0.13829,0.30128 0.13829,0.77047 0,0.46426 -0.13335,0.77047 -0.13335,0.30127 -0.38524,0.44944 -0.24694,0.14816 -0.5976,0.14816 z m 0.13335,-0.63218 q 0.18767,0 0.34078,-0.0889 0.15311,-0.0889 0.24201,-0.25188 0.0938,-0.16792 0.0938,-0.39511 0,-0.23213 -0.0938,-0.39511 -0.0889,-0.16298 -0.24201,-0.25188 -0.15311,-0.0889 -0.34078,-0.0889 -0.19262,0 -0.34573,0.0889 -0.1531,0.0889 -0.24694,0.25188 -0.0889,0.16298 -0.0889,0.39511 0,0.22719 0.0889,0.39511 0.0938,0.16298 0.24694,0.25188 0.15311,0.0889 0.34573,0.0889 z m 0.69638,0.59267 v -0.54328 l 0.0148,-0.79022 -0.0494,-0.78528 v -1.54587 h 0.77046 v 3.66465 z"
         style="font-weight:bold;font-family:Montserrat;-inkscape-font-specification:'Montserrat Bold';text-align:center;text-anchor:middle"
         id="path313" />
      <path
         d="m 242.56209,126.3071 h -0.45337 v -0.29903 q -0.2291,0.18087 -0.43891,0.27733 -0.20981,0.0965 -0.46302,0.0965 -0.42444,0 -0.66077,-0.25804 -0.23633,-0.26044 -0.23633,-0.76205 v -1.74839 h 0.45337 v 1.53376 q 0,0.20498 0.0193,0.35209 0.0193,0.14469 0.082,0.24839 0.0651,0.10611 0.16881,0.15434 0.10369,0.0482 0.30144,0.0482 0.17605,0 0.38344,-0.0916 0.20981,-0.0916 0.39068,-0.23392 v -2.01125 h 0.45337 z"
         style="font-family:Quattrocento;-inkscape-font-specification:'Quattrocento, Normal';text-align:center;text-anchor:middle"
         id="path315" />
      <path
         d="m 245.70677,126.3071 h -0.45337 v -1.53375 q 0,-0.18569 -0.0217,-0.34727 -0.0217,-0.16399 -0.0796,-0.25562 -0.0603,-0.10129 -0.17363,-0.14952 -0.11334,-0.0506 -0.29421,-0.0506 -0.18569,0 -0.38826,0.0916 -0.20257,0.0916 -0.38826,0.23393 v 2.01124 h -0.45338 v -2.69372 h 0.45338 v 0.29904 q 0.21221,-0.17605 0.4389,-0.27492 0.22669,-0.0989 0.46543,-0.0989 0.4365,0 0.6656,0.26287 0.22909,0.26286 0.22909,0.75723 z"
         style="font-family:Quattrocento;-inkscape-font-specification:'Quattrocento, Normal';text-align:center;text-anchor:middle"
         id="path317" />
      <path
         d="m 248.673,126.3071 h -0.45096 v -0.28697 q -0.0603,0.041 -0.16399,0.11575 -0.10128,0.0724 -0.19775,0.11576 -0.11334,0.0555 -0.26045,0.0916 -0.1471,0.0386 -0.34485,0.0386 -0.36415,0 -0.61736,-0.24115 -0.25322,-0.24116 -0.25322,-0.61495 0,-0.30627 0.13023,-0.49438 0.13264,-0.19051 0.3762,-0.29903 0.24598,-0.10852 0.59084,-0.14711 0.34485,-0.0386 0.74035,-0.0579 v -0.0699 q 0,-0.15434 -0.0555,-0.25562 -0.0531,-0.10129 -0.15434,-0.15917 -0.0965,-0.0555 -0.23151,-0.0748 -0.13505,-0.0193 -0.28215,-0.0193 -0.17846,0 -0.39791,0.0482 -0.21945,0.0458 -0.45337,0.13505 h -0.0241 v -0.46061 q 0.13264,-0.0362 0.38344,-0.0796 0.2508,-0.0434 0.49437,-0.0434 0.28457,0 0.49437,0.0482 0.21222,0.0458 0.36656,0.15917 0.15193,0.11093 0.23151,0.28697 0.0796,0.17605 0.0796,0.4365 z m -0.45096,-0.66318 v -0.74999 q -0.2074,0.0121 -0.48955,0.0362 -0.27974,0.0241 -0.44373,0.0699 -0.19533,0.0555 -0.31591,0.17364 -0.12058,0.11575 -0.12058,0.32074 0,0.23151 0.13987,0.34967 0.13987,0.11576 0.42685,0.11576 0.23874,0 0.43649,-0.0916 0.19775,-0.094 0.36656,-0.22428 z"
         style="font-family:Quattrocento;-inkscape-font-specification:'Quattrocento, Normal';text-align:center;text-anchor:middle"
         id="path319" />
      <path
         d="m 251.22685,124.10775 h -0.0241 q -0.10129,-0.0241 -0.19775,-0.0338 -0.094,-0.0121 -0.22428,-0.0121 -0.2098,0 -0.40514,0.0941 -0.19534,0.0916 -0.37621,0.23874 v 1.91237 h -0.45337 v -2.69372 h 0.45337 v 0.39791 q 0.2701,-0.21704 0.47508,-0.30627 0.2074,-0.0916 0.42203,-0.0916 0.11816,0 0.17122,0.007 0.0531,0.005 0.15916,0.0217 z"
         style="font-family:Quattrocento;-inkscape-font-specification:'Quattrocento, Normal';text-align:center;text-anchor:middle"
         id="path321" />
      <path
         d="m 255.58455,126.3071 h -0.45337 v -1.53375 q 0,-0.17364 -0.0169,-0.33521 -0.0145,-0.16158 -0.0651,-0.25804 -0.0555,-0.1037 -0.15917,-0.15675 -0.10369,-0.053 -0.29903,-0.053 -0.19052,0 -0.38103,0.0965 -0.19051,0.094 -0.38103,0.24115 0.007,0.0555 0.0121,0.13023 0.005,0.0724 0.005,0.14469 v 1.72427 h -0.45337 v -1.53375 q 0,-0.17846 -0.0169,-0.33762 -0.0145,-0.16158 -0.0651,-0.25804 -0.0555,-0.1037 -0.15917,-0.15434 -0.10369,-0.053 -0.29903,-0.053 -0.18569,0 -0.37379,0.0916 -0.1857,0.0916 -0.37139,0.23393 v 2.01124 h -0.45337 v -2.69372 h 0.45337 v 0.29904 q 0.21222,-0.17605 0.42203,-0.27492 0.21222,-0.0989 0.45096,-0.0989 0.27492,0 0.46543,0.11576 0.19293,0.11576 0.28698,0.32074 0.27492,-0.23151 0.50161,-0.3328 0.22668,-0.1037 0.48472,-0.1037 0.44373,0 0.65354,0.2701 0.21221,0.26768 0.21221,0.75 z"
         style="font-family:Quattrocento;-inkscape-font-specification:'Quattrocento, Normal';text-align:center;text-anchor:middle"
         id="path323" />
      <path
         d="m 258.71236,125.00727 h -1.98472 q 0,0.24839 0.0748,0.43408 0.0747,0.18328 0.20498,0.30145 0.1254,0.11575 0.29662,0.17363 0.17364,0.0579 0.38103,0.0579 0.27492,0 0.55225,-0.10852 0.27974,-0.11093 0.39791,-0.21704 h 0.0241 v 0.49437 q -0.2291,0.0965 -0.46784,0.16157 -0.23875,0.0651 -0.50161,0.0651 -0.67041,0 -1.04662,-0.36173 -0.3762,-0.36415 -0.3762,-1.03215 0,-0.66077 0.35932,-1.04903 0.36174,-0.38827 0.95016,-0.38827 0.54501,0 0.83922,0.31833 0.29663,0.31833 0.29663,0.90434 z M 258.27104,124.66 q -0.002,-0.35691 -0.18087,-0.55225 -0.17604,-0.19533 -0.53778,-0.19533 -0.36414,0 -0.58118,0.21463 -0.21463,0.21463 -0.24357,0.53295 z"
         style="font-family:Quattrocento;-inkscape-font-specification:'Quattrocento, Normal';text-align:center;text-anchor:middle"
         id="path325" />
      <path
         d="m 261.58453,126.3071 h -0.45337 v -0.28215 q -0.19534,0.16881 -0.40756,0.26286 -0.21221,0.0941 -0.4606,0.0941 -0.48232,0 -0.76688,-0.37138 -0.28216,-0.37138 -0.28216,-1.02974 0,-0.34244 0.0965,-0.61012 0.0989,-0.26769 0.26527,-0.45579 0.16399,-0.18328 0.38103,-0.27974 0.21945,-0.0965 0.45337,-0.0965 0.21222,0 0.37621,0.0458 0.16398,0.0434 0.34485,0.13746 v -1.16719 h 0.45337 z m -0.45337,-0.66318 v -1.54581 q -0.18328,-0.082 -0.32797,-0.11335 -0.1447,-0.0313 -0.31592,-0.0313 -0.38103,0 -0.59324,0.26528 -0.21222,0.26527 -0.21222,0.75241 0,0.4799 0.16398,0.7307 0.16399,0.24839 0.52573,0.24839 0.19292,0 0.39067,-0.0844 0.19775,-0.0868 0.36897,-0.22187 z"
         style="font-family:Quattrocento;-inkscape-font-specification:'Quattrocento, Normal';text-align:center;text-anchor:middle"
         id="path327" />
    </g>
    <g
       aria-label="age
&lt; 18"
       id="text819-4"
       style="font-size:4.93889px;line-height:1.25;letter-spacing:0px;word-spacing:0px;stroke-width:0.264583">
      <path
         d="m 282.12462,119.41702 v -0.5643 q -0.17604,0.0145 -0.38102,0.041 -0.20499,0.0241 -0.3111,0.0579 -0.13022,0.041 -0.20016,0.12058 -0.0675,0.0772 -0.0675,0.20498 0,0.0844 0.0145,0.13746 0.0145,0.0531 0.0724,0.10129 0.0555,0.0482 0.13263,0.0723 0.0772,0.0217 0.24116,0.0217 0.13022,0 0.26286,-0.0531 0.13505,-0.053 0.23633,-0.13987 z m 0,0.41961 q -0.0699,0.0531 -0.17363,0.12782 -0.1037,0.0748 -0.19534,0.11816 -0.12781,0.0579 -0.26527,0.0844 -0.13746,0.0289 -0.30145,0.0289 -0.38585,0 -0.6463,-0.23875 -0.26044,-0.23874 -0.26044,-0.61012 0,-0.29663 0.13263,-0.48473 0.13264,-0.1881 0.37621,-0.29662 0.24115,-0.10852 0.59806,-0.15434 0.35692,-0.0458 0.74036,-0.0675 v -0.0145 q 0,-0.22428 -0.18328,-0.30869 -0.18328,-0.0868 -0.54019,-0.0868 -0.21463,0 -0.4582,0.0772 -0.24357,0.0748 -0.34968,0.11575 h -0.0796 v -0.65353 q 0.13746,-0.0362 0.44614,-0.0844 0.31109,-0.0506 0.62218,-0.0506 0.74035,0 1.06833,0.2291 0.33038,0.22669 0.33038,0.71382 v 1.84244 h -0.86093 z"
         style="font-weight:bold;font-family:Quattrocento;-inkscape-font-specification:'Quattrocento Bold';text-align:center;text-anchor:middle"
         id="path330" />
      <path
         d="m 286.41721,119.81252 q 0,0.38103 -0.10852,0.64148 -0.10852,0.26045 -0.30386,0.40755 -0.19533,0.14952 -0.47266,0.21463 -0.27492,0.0675 -0.62219,0.0675 -0.28215,0 -0.55707,-0.0338 -0.27251,-0.0338 -0.47267,-0.082 v -0.67765 h 0.10611 q 0.15917,0.0627 0.38827,0.11334 0.22909,0.0531 0.40996,0.0531 0.24116,0 0.39068,-0.0458 0.15192,-0.0434 0.23151,-0.1254 0.0747,-0.0772 0.10852,-0.19775 0.0338,-0.12058 0.0338,-0.28939 v -0.0506 q -0.15675,0.12781 -0.34727,0.20257 -0.19051,0.0748 -0.42443,0.0748 -0.56913,0 -0.87781,-0.34245 -0.30868,-0.34244 -0.30868,-1.04179 0,-0.33521 0.094,-0.57878 0.094,-0.24357 0.26527,-0.42444 0.15916,-0.16881 0.39067,-0.26286 0.23393,-0.094 0.47749,-0.094 0.21946,0 0.39791,0.0531 0.18087,0.0506 0.32798,0.14228 l 0.0313,-0.12058 h 0.84163 z m -0.86816,-0.5426 v -1.22749 q -0.0748,-0.0313 -0.18328,-0.0482 -0.10852,-0.0193 -0.19534,-0.0193 -0.34244,0 -0.51366,0.19775 -0.17122,0.19534 -0.17122,0.54743 0,0.39067 0.14469,0.54501 0.14711,0.15434 0.43408,0.15434 0.13023,0 0.25563,-0.041 0.1254,-0.041 0.2291,-0.10852 z"
         style="font-weight:bold;font-family:Quattrocento;-inkscape-font-specification:'Quattrocento Bold';text-align:center;text-anchor:middle"
         id="path332" />
      <path
         d="m 289.90434,118.92989 h -1.98713 q 0.0193,0.31832 0.24115,0.48713 0.22428,0.16881 0.65836,0.16881 0.27492,0 0.53296,-0.0989 0.25804,-0.0989 0.40755,-0.21222 h 0.0965 v 0.69694 q -0.29421,0.11817 -0.55466,0.17122 -0.26045,0.0531 -0.57637,0.0531 -0.81511,0 -1.24919,-0.36656 -0.43408,-0.36656 -0.43408,-1.04421 0,-0.67041 0.40996,-1.06109 0.41238,-0.39308 1.12862,-0.39308 0.66077,0 0.99356,0.3352 0.3328,0.3328 0.3328,0.95981 z m -0.86334,-0.50885 q -0.007,-0.2725 -0.13505,-0.40996 -0.12781,-0.13746 -0.39791,-0.13746 -0.2508,0 -0.41238,0.13022 -0.16157,0.13023 -0.18086,0.4172 z"
         style="font-weight:bold;font-family:Quattrocento;-inkscape-font-specification:'Quattrocento Bold';text-align:center;text-anchor:middle"
         id="path334" />
      <path
         d="m 282.45742,126.11153 -2.78295,-1.23713 v -0.29904 l 2.78295,-1.23713 v 0.43408 l -2.19453,0.95257 2.19453,0.95257 z"
         style="font-family:Quattrocento;-inkscape-font-specification:'Quattrocento, Normal';text-align:center;text-anchor:middle"
         id="path336" />
      <path
         d="m 287.45419,126.29722 h -1.94373 v -0.36655 h 0.74759 v -2.40675 h -0.74759 v -0.32797 q 0.15193,0 0.32557,-0.0241 0.17363,-0.0265 0.26286,-0.0748 0.11093,-0.0603 0.17363,-0.15192 0.0651,-0.0941 0.0748,-0.25081 h 0.37379 v 3.23633 h 0.73312 z"
         style="font-family:Quattrocento;-inkscape-font-specification:'Quattrocento, Normal';text-align:center;text-anchor:middle"
         id="path338" />
      <path
         d="m 290.82556,125.29642 q 0,0.46544 -0.36415,0.77412 -0.36173,0.30868 -0.91157,0.30868 -0.5836,0 -0.93087,-0.30145 -0.34485,-0.30144 -0.34485,-0.7717 0,-0.29903 0.17363,-0.54019 0.17364,-0.24357 0.48955,-0.38585 v -0.0145 q -0.28939,-0.15434 -0.42926,-0.33762 -0.13746,-0.18328 -0.13746,-0.4582 0,-0.40514 0.3328,-0.67524 0.3328,-0.27009 0.84646,-0.27009 0.53778,0 0.85852,0.25803 0.32074,0.25804 0.32074,0.65595 0,0.24357 -0.15193,0.4799 -0.15193,0.23392 -0.44614,0.36656 v 0.0145 q 0.33762,0.14469 0.51607,0.35691 0.17846,0.21222 0.17846,0.54019 z m -0.57154,-1.75321 q 0,-0.25803 -0.20016,-0.40996 -0.19775,-0.15434 -0.50643,-0.15434 -0.30386,0 -0.4992,0.14469 -0.19292,0.1447 -0.19292,0.39068 0,0.17363 0.0965,0.30144 0.0989,0.1254 0.29662,0.22428 0.0892,0.0434 0.25563,0.11334 0.16881,0.0699 0.32797,0.11576 0.23875,-0.15917 0.33039,-0.33039 0.0916,-0.17122 0.0916,-0.3955 z m 0.0748,1.79903 q 0,-0.22186 -0.0989,-0.3545 -0.0965,-0.13504 -0.38103,-0.27009 -0.11334,-0.0531 -0.24839,-0.0989 -0.13505,-0.0458 -0.35932,-0.12781 -0.21704,0.11817 -0.34968,0.32074 -0.13022,0.20257 -0.13022,0.4582 0,0.32556 0.22427,0.53778 0.22428,0.21221 0.56913,0.21221 0.35209,0 0.5619,-0.18086 0.21222,-0.18087 0.21222,-0.49679 z"
         style="font-family:Quattrocento;-inkscape-font-specification:'Quattrocento, Normal';text-align:center;text-anchor:middle"
         id="path340" />
    </g>
  </g>
</svg>
