<?xml version="1.0" encoding="UTF-8" standalone="no"?>
<!-- Created with Inkscape (http://www.inkscape.org/) -->

<svg
   width="62.70499mm"
   height="36.52932mm"
   viewBox="0 0 62.70499 36.52932"
   version="1.1"
   id="svg2421"
   inkscape:version="1.2.1 (9c6d41e410, 2022-07-14)"
   sodipodi:docname="disadvantage_or_crime.svg"
   xmlns:inkscape="http://www.inkscape.org/namespaces/inkscape"
   xmlns:sodipodi="http://sodipodi.sourceforge.net/DTD/sodipodi-0.dtd"
   xmlns="http://www.w3.org/2000/svg"
   xmlns:svg="http://www.w3.org/2000/svg"
   xmlns:rdf="http://www.w3.org/1999/02/22-rdf-syntax-ns#"
   xmlns:cc="http://creativecommons.org/ns#"
   xmlns:dc="http://purl.org/dc/elements/1.1/">
  <defs
     id="defs2415" />
  <sodipodi:namedview
     id="base"
     pagecolor="#ffffff"
     bordercolor="#666666"
     borderopacity="1.0"
     inkscape:pageopacity="0.0"
     inkscape:pageshadow="2"
     inkscape:zoom="3.959798"
     inkscape:cx="66.164991"
     inkscape:cy="66.417529"
     inkscape:document-units="mm"
     inkscape:current-layer="layer1"
     showgrid="false"
     inkscape:window-width="1920"
     inkscape:window-height="1009"
     inkscape:window-x="-8"
     inkscape:window-y="-8"
     inkscape:window-maximized="1"
     inkscape:showpageshadow="2"
     inkscape:pagecheckerboard="0"
     inkscape:deskcolor="#d1d1d1" />
  <metadata
     id="metadata2418">
    <rdf:RDF>
      <cc:Work
         rdf:about="">
        <dc:format>image/svg+xml</dc:format>
        <dc:type
           rdf:resource="http://purl.org/dc/dcmitype/StillImage" />
      </cc:Work>
    </rdf:RDF>
  </metadata>
  <g
     inkscape:label="Layer 1"
     inkscape:groupmode="layer"
     id="layer1"
     transform="translate(-237.0106,-103.35439)">
    <path
       inkscape:connector-curvature="0"
       style="color:#000000;font-style:normal;font-variant:normal;font-weight:normal;font-stretch:normal;font-size:medium;line-height:normal;font-family:sans-serif;font-variant-ligatures:normal;font-variant-position:normal;font-variant-caps:normal;font-variant-numeric:normal;font-variant-alternates:normal;font-feature-settings:normal;text-indent:0;text-align:start;text-decoration:none;text-decoration-line:none;text-decoration-style:solid;text-decoration-color:#000000;letter-spacing:normal;word-spacing:normal;text-transform:none;writing-mode:lr-tb;direction:ltr;text-orientation:mixed;dominant-baseline:auto;baseline-shift:baseline;text-anchor:start;white-space:normal;shape-padding:0;clip-rule:nonzero;display:inline;overflow:visible;visibility:visible;opacity:1;isolation:auto;mix-blend-mode:normal;color-interpolation:sRGB;color-interpolation-filters:linearRGB;solid-color:#000000;solid-opacity:1;vector-effect:none;fill:#fdacff;fill-opacity:1;fill-rule:nonzero;stroke:#000000;stroke-width:0.5;stroke-linecap:round;stroke-linejoin:round;stroke-miterlimit:4;stroke-dasharray:none;stroke-dashoffset:0;stroke-opacity:1;color-rendering:auto;image-rendering:auto;shape-rendering:auto;text-rendering:auto;enable-background:accumulate"
       d="m 255.74681,103.60439 c -10.20382,0 -18.48621,8.06391 -18.48621,18.01388 0,9.94998 8.28239,18.01544 18.48621,18.01544 4.87612,0 9.31087,-1.84475 12.61577,-4.85397 3.30441,3.00911 7.73871,4.85397 12.61473,4.85397 10.20382,0 18.48828,-8.06546 18.48828,-18.01544 0,-9.94997 -8.28446,-18.01388 -18.48828,-18.01388 -4.87606,0 -9.31032,1.84476 -12.61473,4.85344 -3.30491,-3.00879 -7.73961,-4.85344 -12.61577,-4.85344 z"
       id="path919" />
    <path
       style="color:#000000;font-style:normal;font-variant:normal;font-weight:normal;font-stretch:normal;font-size:medium;line-height:normal;font-family:sans-serif;font-variant-ligatures:normal;font-variant-position:normal;font-variant-caps:normal;font-variant-numeric:normal;font-variant-alternates:normal;font-feature-settings:normal;text-indent:0;text-align:start;text-decoration:none;text-decoration-line:none;text-decoration-style:solid;text-decoration-color:#000000;letter-spacing:normal;word-spacing:normal;text-transform:none;writing-mode:lr-tb;direction:ltr;text-orientation:mixed;dominant-baseline:auto;baseline-shift:baseline;text-anchor:start;white-space:normal;shape-padding:0;clip-rule:nonzero;display:inline;overflow:visible;visibility:visible;opacity:1;isolation:auto;mix-blend-mode:normal;color-interpolation:sRGB;color-interpolation-filters:linearRGB;solid-color:#000000;solid-opacity:1;vector-effect:none;fill:none;fill-opacity:1;fill-rule:nonzero;stroke:none;stroke-width:0.5;stroke-linecap:round;stroke-linejoin:round;stroke-miterlimit:4;stroke-dasharray:none;stroke-dashoffset:0;stroke-opacity:1;color-rendering:auto;image-rendering:auto;shape-rendering:auto;text-rendering:auto;enable-background:accumulate"
       d="m 255.74681,104.10436 c 4.73605,0 9.03985,1.78242 12.25093,4.69221 -3.39777,3.26617 -5.50664,7.80298 -5.50664,12.82144 0,5.01857 2.10874,9.5558 5.50664,12.82248 -3.21108,2.91021 -7.51491,4.69325 -12.25093,4.69325 -9.9406,0 -17.9865,-7.84316 -17.9865,-17.51573 0,-9.67257 8.0459,-17.51365 17.9865,-17.51365 z"
       id="path917"
       inkscape:connector-curvature="0" />
    <path
       style="color:#000000;font-style:normal;font-variant:normal;font-weight:normal;font-stretch:normal;font-size:medium;line-height:normal;font-family:sans-serif;font-variant-ligatures:normal;font-variant-position:normal;font-variant-caps:normal;font-variant-numeric:normal;font-variant-alternates:normal;font-feature-settings:normal;text-indent:0;text-align:start;text-decoration:none;text-decoration-line:none;text-decoration-style:solid;text-decoration-color:#000000;letter-spacing:normal;word-spacing:normal;text-transform:none;writing-mode:lr-tb;direction:ltr;text-orientation:mixed;dominant-baseline:auto;baseline-shift:baseline;text-anchor:start;white-space:normal;shape-padding:0;clip-rule:nonzero;display:inline;overflow:visible;visibility:visible;opacity:1;isolation:auto;mix-blend-mode:normal;color-interpolation:sRGB;color-interpolation-filters:linearRGB;solid-color:#000000;solid-opacity:1;vector-effect:none;fill:none;fill-opacity:1;fill-rule:nonzero;stroke:none;stroke-width:0.5;stroke-linecap:round;stroke-linejoin:round;stroke-miterlimit:4;stroke-dasharray:none;stroke-dashoffset:0;stroke-opacity:1;color-rendering:auto;image-rendering:auto;shape-rendering:auto;text-rendering:auto;enable-background:accumulate"
       d="m 280.97731,104.10436 c 9.9406,0 17.98805,7.84108 17.98805,17.51365 0,9.67257 -8.04745,17.51573 -17.98805,17.51573 -4.73602,0 -9.03928,-1.78304 -12.2499,-4.69325 3.39837,-3.26668 5.50768,-7.80392 5.50768,-12.82248 0,-5.01844 -2.10943,-9.55527 -5.50768,-12.82144 3.21063,-2.90979 7.51385,-4.69221 12.2499,-4.69221 z"
       id="path915"
       inkscape:connector-curvature="0" />
    <path
       style="color:#000000;font-style:normal;font-variant:normal;font-weight:normal;font-stretch:normal;font-size:medium;line-height:normal;font-family:sans-serif;font-variant-ligatures:normal;font-variant-position:normal;font-variant-caps:normal;font-variant-numeric:normal;font-variant-alternates:normal;font-feature-settings:normal;text-indent:0;text-align:start;text-decoration:none;text-decoration-line:none;text-decoration-style:solid;text-decoration-color:#000000;letter-spacing:normal;word-spacing:normal;text-transform:none;writing-mode:lr-tb;direction:ltr;text-orientation:mixed;dominant-baseline:auto;baseline-shift:baseline;text-anchor:start;white-space:normal;shape-padding:0;clip-rule:nonzero;display:inline;overflow:visible;visibility:visible;opacity:1;isolation:auto;mix-blend-mode:normal;color-interpolation:sRGB;color-interpolation-filters:linearRGB;solid-color:#000000;solid-opacity:1;vector-effect:none;fill:#fdacff;fill-opacity:1;fill-rule:nonzero;stroke:#000000;stroke-width:0.5;stroke-linecap:round;stroke-linejoin:round;stroke-miterlimit:4;stroke-dasharray:none;stroke-dashoffset:0;stroke-opacity:1;color-rendering:auto;image-rendering:auto;shape-rendering:auto;text-rendering:auto;enable-background:accumulate"
       d="m 268.36258,109.13609 c 3.3155,3.17695 5.3728,7.59491 5.3728,12.48244 0,4.88763 -2.05718,9.30602 -5.3728,12.48348 -3.31514,-3.17746 -5.37177,-7.59585 -5.37177,-12.48348 0,-4.88753 2.05676,-9.30549 5.37177,-12.48244 z"
       id="path815"
       inkscape:connector-curvature="0" />
    <g
       aria-label="disadv-
antage"
       id="text606"
       style="font-size:4.93889px;line-height:0.9;font-family:Montserrat;-inkscape-font-specification:Montserrat;text-align:center;text-anchor:middle;stroke-width:0.0499999">
      <path
         d="m 242.60898,118.77602 q -0.37536,0 -0.67663,-0.16792 -0.30127,-0.17286 -0.47907,-0.47907 -0.17286,-0.30621 -0.17286,-0.72108 0,-0.41981 0.17286,-0.72602 0.1778,-0.30621 0.47907,-0.47413 0.30127,-0.16792 0.67663,-0.16792 0.33584,0 0.58773,0.14816 0.25188,0.14817 0.39017,0.44944 0.13829,0.30128 0.13829,0.77047 0,0.46426 -0.13335,0.77047 -0.13335,0.30127 -0.38524,0.44944 -0.24694,0.14816 -0.5976,0.14816 z m 0.13335,-0.63218 q 0.18768,0 0.34078,-0.0889 0.15311,-0.0889 0.24201,-0.25188 0.0938,-0.16792 0.0938,-0.39511 0,-0.23213 -0.0938,-0.39511 -0.0889,-0.16298 -0.24201,-0.25188 -0.1531,-0.0889 -0.34078,-0.0889 -0.19262,0 -0.34573,0.0889 -0.1531,0.0889 -0.24694,0.25188 -0.0889,0.16298 -0.0889,0.39511 0,0.22719 0.0889,0.39511 0.0938,0.16298 0.24694,0.25188 0.15311,0.0889 0.34573,0.0889 z m 0.69638,0.59267 v -0.54328 l 0.0148,-0.79022 -0.0494,-0.78528 v -1.54588 h 0.77047 v 3.66466 z"
         style="font-weight:bold;stroke-width:0.05"
         id="path765" />
      <path
         d="m 244.8858,118.73651 v -2.65712 h 0.77047 v 2.65712 z m 0.38524,-3.02754 q -0.21238,0 -0.34573,-0.12347 -0.13335,-0.12347 -0.13335,-0.30621 0,-0.18274 0.13335,-0.30621 0.13335,-0.12348 0.34573,-0.12348 0.21237,0 0.34572,0.11854 0.13335,0.11359 0.13335,0.29633 0,0.19262 -0.13335,0.32103 -0.12841,0.12347 -0.34572,0.12347 z"
         style="font-weight:bold;stroke-width:0.05"
         id="path767" />
      <path
         d="m 247.26635,118.77602 q -0.34078,0 -0.65687,-0.079 -0.31115,-0.084 -0.49389,-0.20743 l 0.25682,-0.55316 q 0.18274,0.1136 0.42968,0.18768 0.25189,0.0691 0.49389,0.0691 0.2667,0 0.37536,-0.0642 0.11359,-0.0642 0.11359,-0.1778 0,-0.0938 -0.0889,-0.13829 -0.084,-0.0494 -0.22718,-0.0741 -0.14323,-0.0247 -0.31609,-0.0494 -0.16793,-0.0247 -0.34079,-0.0642 -0.17286,-0.0444 -0.31609,-0.12841 -0.14322,-0.084 -0.23212,-0.22719 -0.084,-0.14323 -0.084,-0.37042 0,-0.25188 0.14323,-0.4445 0.14817,-0.19261 0.42475,-0.30127 0.27657,-0.11359 0.66181,-0.11359 0.27164,0 0.55315,0.0593 0.28152,0.0593 0.4692,0.17287 l -0.25682,0.54821 q -0.19262,-0.11359 -0.39018,-0.1531 -0.19261,-0.0444 -0.37535,-0.0444 -0.25682,0 -0.37536,0.0691 -0.11853,0.0691 -0.11853,0.1778 0,0.0988 0.084,0.14817 0.0889,0.0494 0.23213,0.079 0.14323,0.0296 0.31115,0.0543 0.17286,0.0198 0.34572,0.0642 0.17286,0.0445 0.31115,0.12841 0.14323,0.079 0.23213,0.22225 0.0889,0.13829 0.0889,0.36548 0,0.24695 -0.14817,0.43956 -0.14816,0.18768 -0.42968,0.29634 -0.27658,0.10865 -0.67663,0.10865 z"
         style="font-weight:bold;stroke-width:0.05"
         id="path769" />
      <path
         d="m 250.6248,118.73651 v -0.51858 l -0.0494,-0.1136 v -0.92851 q 0,-0.24694 -0.15311,-0.38523 -0.14816,-0.13829 -0.45931,-0.13829 -0.21238,0 -0.41981,0.0691 -0.20249,0.0642 -0.34572,0.1778 l -0.27658,-0.53833 q 0.21731,-0.15311 0.52352,-0.23707 0.30621,-0.084 0.6223,-0.084 0.60749,0 0.94333,0.28645 0.33584,0.28646 0.33584,0.89394 v 1.51624 z m -0.80998,0.0395 q -0.31115,0 -0.5334,-0.10371 -0.22225,-0.10866 -0.34078,-0.2914 -0.11854,-0.18274 -0.11854,-0.40993 0,-0.23706 0.1136,-0.41486 0.11853,-0.1778 0.37041,-0.27658 0.25189,-0.10372 0.65688,-0.10372 h 0.70626 v 0.44944 h -0.6223 q -0.27164,0 -0.37536,0.0889 -0.0988,0.0889 -0.0988,0.22225 0,0.14817 0.1136,0.23707 0.11853,0.084 0.32103,0.084 0.19261,0 0.34572,-0.0889 0.1531,-0.0938 0.22225,-0.27164 l 0.11853,0.3556 q -0.084,0.25682 -0.30621,0.39017 -0.22225,0.13335 -0.57291,0.13335 z"
         style="font-weight:bold;stroke-width:0.05"
         id="path771" />
      <path
         d="m 253.20273,118.77602 q -0.37536,0 -0.67663,-0.16792 -0.30127,-0.17286 -0.47907,-0.47907 -0.17286,-0.30621 -0.17286,-0.72108 0,-0.41981 0.17286,-0.72602 0.1778,-0.30621 0.47907,-0.47413 0.30127,-0.16792 0.67663,-0.16792 0.33584,0 0.58773,0.14816 0.25188,0.14817 0.39017,0.44944 0.13829,0.30128 0.13829,0.77047 0,0.46426 -0.13335,0.77047 -0.13335,0.30127 -0.38524,0.44944 -0.24694,0.14816 -0.5976,0.14816 z m 0.13335,-0.63218 q 0.18768,0 0.34078,-0.0889 0.15311,-0.0889 0.24201,-0.25188 0.0938,-0.16792 0.0938,-0.39511 0,-0.23213 -0.0938,-0.39511 -0.0889,-0.16298 -0.24201,-0.25188 -0.1531,-0.0889 -0.34078,-0.0889 -0.19262,0 -0.34572,0.0889 -0.15311,0.0889 -0.24695,0.25188 -0.0889,0.16298 -0.0889,0.39511 0,0.22719 0.0889,0.39511 0.0938,0.16298 0.24695,0.25188 0.1531,0.0889 0.34572,0.0889 z m 0.69638,0.59267 v -0.54328 l 0.0148,-0.79022 -0.0494,-0.78528 v -1.54588 h 0.77047 v 3.66466 z"
         style="font-weight:bold;stroke-width:0.05"
         id="path773" />
      <path
         d="m 256.20063,118.73651 -1.11619,-2.65712 h 0.79516 l 0.92852,2.2867 h -0.39511 l 0.96308,-2.2867 h 0.74083 l -1.12113,2.65712 z"
         style="font-weight:bold;stroke-width:0.05"
         id="path775" />
      <path
         d="m 258.25333,117.65489 v -0.61736 h 1.39771 v 0.61736 z"
         style="font-weight:bold;stroke-width:0.05"
         id="path777" />
      <path
         d="m 243.36862,123.18151 v -0.51858 l -0.0494,-0.1136 v -0.92851 q 0,-0.24694 -0.1531,-0.38523 -0.14817,-0.13829 -0.45932,-0.13829 -0.21237,0 -0.41981,0.0691 -0.20249,0.0642 -0.34572,0.17781 l -0.27658,-0.53834 q 0.21732,-0.15311 0.52353,-0.23707 0.30621,-0.084 0.6223,-0.084 0.60748,0 0.94332,0.28645 0.33585,0.28646 0.33585,0.89394 v 1.51624 z m -0.80998,0.0395 q -0.31115,0 -0.5334,-0.10371 -0.22225,-0.10866 -0.34078,-0.2914 -0.11853,-0.18274 -0.11853,-0.40993 0,-0.23706 0.11359,-0.41486 0.11853,-0.1778 0.37042,-0.27658 0.25188,-0.10372 0.65687,-0.10372 h 0.70626 v 0.44944 h -0.6223 q -0.27164,0 -0.37535,0.0889 -0.0988,0.0889 -0.0988,0.22225 0,0.14817 0.11359,0.23707 0.11854,0.084 0.32103,0.084 0.19262,0 0.34572,-0.0889 0.15311,-0.0938 0.22225,-0.27164 l 0.11854,0.3556 q -0.084,0.25682 -0.30622,0.39017 -0.22225,0.13335 -0.57291,0.13335 z"
         style="font-weight:bold;stroke-width:0.05"
         id="path779" />
      <path
         d="m 246.4011,120.48488 q 0.31609,0 0.56304,0.12841 0.25188,0.12347 0.39511,0.38523 0.14322,0.25683 0.14322,0.66181 v 1.52118 h -0.77046 v -1.40264 q 0,-0.32103 -0.14323,-0.47414 -0.13829,-0.1531 -0.39511,-0.1531 -0.18274,0 -0.33091,0.079 -0.14322,0.0741 -0.22719,0.23213 -0.079,0.15804 -0.079,0.40499 v 1.31374 h -0.77046 v -2.65712 h 0.73589 v 0.73589 l -0.13829,-0.22225 q 0.14323,-0.2667 0.40993,-0.40992 0.2667,-0.14323 0.60748,-0.14323 z"
         style="font-weight:bold;stroke-width:0.05"
         id="path781" />
      <path
         d="m 249.28541,123.22102 q -0.46919,0 -0.73095,-0.23706 -0.26176,-0.24201 -0.26176,-0.71614 v -2.33116 h 0.77046 v 2.32128 q 0,0.16792 0.0889,0.26176 0.0889,0.0889 0.24201,0.0889 0.18274,0 0.31115,-0.0988 l 0.20743,0.54328 q -0.11853,0.084 -0.28645,0.12841 -0.16299,0.0395 -0.34079,0.0395 z m -1.40264,-2.0447 v -0.59266 h 1.8422 v 0.59266 z"
         style="font-weight:bold;stroke-width:0.05"
         id="path783" />
      <path
         d="m 251.97711,123.18151 v -0.51858 l -0.0494,-0.1136 v -0.92851 q 0,-0.24694 -0.15311,-0.38523 -0.14816,-0.13829 -0.45931,-0.13829 -0.21238,0 -0.41981,0.0691 -0.2025,0.0642 -0.34572,0.17781 l -0.27658,-0.53834 q 0.21731,-0.15311 0.52352,-0.23707 0.30621,-0.084 0.6223,-0.084 0.60749,0 0.94333,0.28645 0.33584,0.28646 0.33584,0.89394 v 1.51624 z m -0.80998,0.0395 q -0.31115,0 -0.5334,-0.10371 -0.22225,-0.10866 -0.34079,-0.2914 -0.11853,-0.18274 -0.11853,-0.40993 0,-0.23706 0.1136,-0.41486 0.11853,-0.1778 0.37041,-0.27658 0.25189,-0.10372 0.65688,-0.10372 h 0.70626 v 0.44944 h -0.6223 q -0.27164,0 -0.37536,0.0889 -0.0988,0.0889 -0.0988,0.22225 0,0.14817 0.1136,0.23707 0.11853,0.084 0.32103,0.084 0.19261,0 0.34572,-0.0889 0.1531,-0.0938 0.22225,-0.27164 l 0.11853,0.3556 q -0.084,0.25682 -0.30621,0.39017 -0.22225,0.13335 -0.57291,0.13335 z"
         style="font-weight:bold;stroke-width:0.05"
         id="path785" />
      <path
         d="m 254.66369,124.17917 q -0.37535,0 -0.72601,-0.0938 -0.34572,-0.0889 -0.57785,-0.27164 l 0.30621,-0.55316 q 0.16792,0.13829 0.42474,0.21732 0.26176,0.084 0.51365,0.084 0.40993,0 0.59266,-0.18274 0.18768,-0.18274 0.18768,-0.54328 v -0.40005 l 0.0494,-0.66675 -0.01,-0.67169 v -0.57291 h 0.73096 v 2.21262 q 0,0.74084 -0.38523,1.0915 -0.38524,0.35066 -1.10632,0.35066 z m -0.11853,-1.12607 q -0.37042,0 -0.67169,-0.15804 -0.29633,-0.16299 -0.47907,-0.44944 -0.1778,-0.2914 -0.1778,-0.67663 0,-0.39017 0.1778,-0.67663 0.18274,-0.29139 0.47907,-0.44944 0.30127,-0.15804 0.67169,-0.15804 0.33585,0 0.59267,0.13829 0.25682,0.13335 0.40005,0.4198 0.14323,0.28152 0.14323,0.72602 0,0.43956 -0.14323,0.72602 -0.14323,0.28151 -0.40005,0.4198 -0.25682,0.13829 -0.59267,0.13829 z m 0.15311,-0.63218 q 0.20249,0 0.36054,-0.079 0.15804,-0.084 0.24694,-0.23213 0.0889,-0.14816 0.0889,-0.34078 0,-0.19756 -0.0889,-0.34078 -0.0889,-0.14817 -0.24694,-0.22719 -0.15805,-0.084 -0.36054,-0.084 -0.2025,0 -0.36054,0.084 -0.15805,0.079 -0.25189,0.22719 -0.0889,0.14322 -0.0889,0.34078 0,0.19262 0.0889,0.34078 0.0938,0.14817 0.25189,0.23213 0.15804,0.079 0.36054,0.079 z"
         style="font-weight:bold;stroke-width:0.05"
         id="path787" />
      <path
         d="m 258.19007,123.22102 q -0.45438,0 -0.8001,-0.1778 -0.34079,-0.1778 -0.52847,-0.48401 -0.18767,-0.31115 -0.18767,-0.70626 0,-0.40005 0.18274,-0.70626 0.18767,-0.31115 0.5087,-0.48401 0.32103,-0.1778 0.72602,-0.1778 0.39017,0 0.70132,0.16792 0.31609,0.16298 0.49883,0.47413 0.18274,0.30622 0.18274,0.7359 0,0.0444 -0.005,0.10372 -0.005,0.0543 -0.01,0.10371 h -2.15829 v -0.44944 h 1.7533 l -0.29633,0.13335 q 0,-0.20743 -0.084,-0.36054 -0.084,-0.1531 -0.23213,-0.23706 -0.14817,-0.0889 -0.34572,-0.0889 -0.19756,0 -0.35066,0.0889 -0.14817,0.084 -0.23213,0.242 -0.084,0.15311 -0.084,0.36548 v 0.11853 q 0,0.21732 0.0938,0.38524 0.0988,0.16298 0.27163,0.25188 0.1778,0.084 0.41487,0.084 0.21237,0 0.37042,-0.0642 0.16298,-0.0642 0.29633,-0.19262 l 0.40993,0.4445 q -0.18274,0.20743 -0.45932,0.32103 -0.27657,0.10865 -0.63711,0.10865 z"
         style="font-weight:bold;stroke-width:0.05"
         id="path789" />
    </g>
    <g
       aria-label="crime
rate"
       id="text606-2"
       style="font-size:4.93889px;line-height:0.9;font-family:Montserrat;-inkscape-font-specification:Montserrat;text-align:center;text-anchor:middle;stroke-width:0.0499999">
      <path
         d="m 278.5156,118.77602 q -0.42969,0 -0.76553,-0.17286 -0.33585,-0.1778 -0.52846,-0.48895 -0.18768,-0.31115 -0.18768,-0.70626 0,-0.40005 0.18768,-0.70626 0.19261,-0.31115 0.52846,-0.48401 0.33584,-0.1778 0.76553,-0.1778 0.4198,0 0.73095,0.1778 0.31115,0.17286 0.45932,0.49883 l -0.59761,0.32102 q -0.10371,-0.18767 -0.26176,-0.27657 -0.1531,-0.0889 -0.33584,-0.0889 -0.19756,0 -0.3556,0.0889 -0.15805,0.0889 -0.25189,0.25188 -0.0889,0.16298 -0.0889,0.39511 0,0.23213 0.0889,0.39511 0.0938,0.16298 0.25189,0.25188 0.15804,0.0889 0.3556,0.0889 0.18274,0 0.33584,-0.084 0.15805,-0.0889 0.26176,-0.28151 l 0.59761,0.32596 q -0.14817,0.32103 -0.45932,0.49883 -0.31115,0.17286 -0.73095,0.17286 z"
         style="font-weight:bold;stroke-width:0.05"
         id="path792" />
      <path
         d="m 280.15037,118.73651 v -2.65712 h 0.73589 v 0.75071 l -0.10372,-0.21731 q 0.11854,-0.28152 0.3803,-0.42475 0.26176,-0.14816 0.63712,-0.14816 v 0.7112 q -0.0494,-0.005 -0.0889,-0.005 -0.0395,-0.005 -0.084,-0.005 -0.31608,0 -0.51364,0.18274 -0.19262,0.1778 -0.19262,0.55809 v 1.25448 z"
         style="font-weight:bold;stroke-width:0.05"
         id="path794" />
      <path
         d="m 282.26115,118.73651 v -2.65712 h 0.77046 v 2.65712 z m 0.38523,-3.02754 q -0.21237,0 -0.34572,-0.12347 -0.13335,-0.12347 -0.13335,-0.30621 0,-0.18274 0.13335,-0.30621 0.13335,-0.12348 0.34572,-0.12348 0.21237,0 0.34572,0.11854 0.13335,0.11359 0.13335,0.29633 0,0.19262 -0.13335,0.32103 -0.12841,0.12347 -0.34572,0.12347 z"
         style="font-weight:bold;stroke-width:0.05"
         id="path796" />
      <path
         d="m 287.15065,116.03988 q 0.31609,0 0.5581,0.12841 0.24694,0.12347 0.38523,0.38523 0.14323,0.25682 0.14323,0.66181 v 1.52118 h -0.77047 v -1.40264 q 0,-0.32103 -0.13335,-0.47414 -0.13335,-0.1531 -0.37536,-0.1531 -0.16792,0 -0.30127,0.079 -0.13335,0.0741 -0.20743,0.22719 -0.0741,0.1531 -0.0741,0.39017 v 1.3335 h -0.77047 v -1.40264 q 0,-0.32103 -0.13335,-0.47414 -0.12841,-0.1531 -0.37042,-0.1531 -0.16792,0 -0.30127,0.079 -0.13335,0.0741 -0.20743,0.22719 -0.0741,0.1531 -0.0741,0.39017 v 1.3335 h -0.77046 v -2.65712 h 0.73589 v 0.72602 l -0.13829,-0.21238 q 0.13829,-0.27164 0.39017,-0.40992 0.25683,-0.14323 0.58279,-0.14323 0.36548,0 0.63712,0.18768 0.27658,0.18273 0.36548,0.56303 l -0.27164,-0.0741 q 0.13335,-0.31115 0.42474,-0.49389 0.29634,-0.18274 0.67663,-0.18274 z"
         style="font-weight:bold;stroke-width:0.05"
         id="path798" />
      <path
         d="m 290.26692,118.77602 q -0.45438,0 -0.8001,-0.1778 -0.34078,-0.1778 -0.52846,-0.48401 -0.18768,-0.31115 -0.18768,-0.70626 0,-0.40005 0.18274,-0.70626 0.18768,-0.31115 0.5087,-0.48401 0.32103,-0.1778 0.72602,-0.1778 0.39017,0 0.70132,0.16792 0.31609,0.16298 0.49883,0.47413 0.18274,0.30621 0.18274,0.7359 0,0.0445 -0.005,0.10371 -0.005,0.0543 -0.01,0.10372 h -2.15829 v -0.44944 h 1.7533 l -0.29633,0.13335 q 0,-0.20743 -0.084,-0.36054 -0.084,-0.1531 -0.23213,-0.23706 -0.14816,-0.0889 -0.34572,-0.0889 -0.19756,0 -0.35066,0.0889 -0.14817,0.084 -0.23213,0.242 -0.084,0.15311 -0.084,0.36548 v 0.11853 q 0,0.21731 0.0938,0.38524 0.0988,0.16298 0.27164,0.25188 0.1778,0.084 0.41486,0.084 0.21238,0 0.37042,-0.0642 0.16298,-0.0642 0.29633,-0.19262 l 0.40993,0.4445 q -0.18274,0.20743 -0.45931,0.32103 -0.27658,0.10865 -0.63712,0.10865 z"
         style="font-weight:bold;stroke-width:0.05"
         id="path800" />
      <path
         d="m 279.56562,123.18151 v -2.65712 h 0.7359 v 0.75071 l -0.10372,-0.21731 q 0.11853,-0.28152 0.38029,-0.42475 0.26177,-0.14816 0.63712,-0.14816 v 0.7112 q -0.0494,-0.005 -0.0889,-0.005 -0.0395,-0.005 -0.084,-0.005 -0.31609,0 -0.51364,0.18274 -0.19262,0.1778 -0.19262,0.55809 v 1.25448 z"
         style="font-weight:bold;stroke-width:0.05"
         id="path802" />
      <path
         d="m 283.13125,123.18151 v -0.51858 l -0.0494,-0.1136 v -0.92851 q 0,-0.24694 -0.15311,-0.38523 -0.14816,-0.13829 -0.45931,-0.13829 -0.21238,0 -0.41981,0.0691 -0.20249,0.0642 -0.34572,0.17781 l -0.27658,-0.53834 q 0.21731,-0.15311 0.52352,-0.23707 0.30621,-0.084 0.6223,-0.084 0.60749,0 0.94333,0.28645 0.33585,0.28646 0.33585,0.89394 v 1.51624 z m -0.80998,0.0395 q -0.31115,0 -0.5334,-0.10371 -0.22225,-0.10866 -0.34078,-0.2914 -0.11854,-0.18274 -0.11854,-0.40993 0,-0.23706 0.1136,-0.41486 0.11853,-0.1778 0.37041,-0.27658 0.25189,-0.10372 0.65688,-0.10372 h 0.70626 v 0.44944 h -0.6223 q -0.27164,0 -0.37536,0.0889 -0.0988,0.0889 -0.0988,0.22225 0,0.14817 0.1136,0.23707 0.11853,0.084 0.32103,0.084 0.19261,0 0.34572,-0.0889 0.1531,-0.0938 0.22225,-0.27164 l 0.11853,0.3556 q -0.084,0.25682 -0.30621,0.39017 -0.22225,0.13335 -0.57291,0.13335 z"
         style="font-weight:bold;stroke-width:0.05"
         id="path804" />
      <path
         d="m 285.63527,123.22102 q -0.4692,0 -0.73096,-0.23706 -0.26176,-0.24201 -0.26176,-0.71614 v -2.33116 h 0.77047 v 2.32128 q 0,0.16792 0.0889,0.26176 0.0889,0.0889 0.242,0.0889 0.18274,0 0.31115,-0.0988 l 0.20744,0.54328 q -0.11854,0.084 -0.28646,0.12841 -0.16298,0.0395 -0.34078,0.0395 z m -1.40265,-2.0447 v -0.59266 h 1.84221 v 0.59266 z"
         style="font-weight:bold;stroke-width:0.05"
         id="path806" />
      <path
         d="m 287.93278,123.22102 q -0.45438,0 -0.8001,-0.1778 -0.34078,-0.1778 -0.52846,-0.48401 -0.18768,-0.31115 -0.18768,-0.70626 0,-0.40005 0.18274,-0.70626 0.18768,-0.31115 0.50871,-0.48401 0.32102,-0.1778 0.72601,-0.1778 0.39017,0 0.70132,0.16792 0.31609,0.16298 0.49883,0.47413 0.18274,0.30622 0.18274,0.7359 0,0.0444 -0.005,0.10372 -0.005,0.0543 -0.01,0.10371 h -2.15829 v -0.44944 h 1.75331 l -0.29634,0.13335 q 0,-0.20743 -0.084,-0.36054 -0.084,-0.1531 -0.23213,-0.23706 -0.14816,-0.0889 -0.34572,-0.0889 -0.19755,0 -0.35066,0.0889 -0.14817,0.084 -0.23213,0.242 -0.084,0.15311 -0.084,0.36548 v 0.11853 q 0,0.21732 0.0938,0.38524 0.0988,0.16298 0.27164,0.25188 0.1778,0.084 0.41487,0.084 0.21237,0 0.37041,-0.0642 0.16299,-0.0642 0.29634,-0.19262 l 0.40992,0.4445 q -0.18274,0.20743 -0.45931,0.32103 -0.27658,0.10865 -0.63712,0.10865 z"
         style="font-weight:bold;stroke-width:0.05"
         id="path808" />
    </g>
    <g
       aria-label="Low"
       id="text606-7"
       style="font-size:4.93889px;font-family:Montserrat;-inkscape-font-specification:Montserrat;text-align:center;text-anchor:middle;stroke-width:0.0499999">
      <path
         d="m 245.64965,129.01837 v -3.45722 h 0.36547 v 3.14113 h 1.93605 v 0.31609 z"
         style="stroke-width:0.05"
         id="path811" />
      <path
         d="m 249.5033,129.04307 q -0.37536,0 -0.67663,-0.16793 -0.29633,-0.17286 -0.4692,-0.46919 -0.17286,-0.30127 -0.17286,-0.68651 0,-0.39017 0.17286,-0.6865 0.17287,-0.29634 0.4692,-0.46426 0.29633,-0.16792 0.67663,-0.16792 0.38523,0 0.68156,0.16792 0.30128,0.16792 0.4692,0.46426 0.17286,0.29633 0.17286,0.6865 0,0.38524 -0.17286,0.68651 -0.16792,0.29633 -0.4692,0.46919 -0.30127,0.16793 -0.68156,0.16793 z m 0,-0.31115 q 0.28151,0 0.49882,-0.12348 0.21732,-0.12841 0.34079,-0.3556 0.12841,-0.23212 0.12841,-0.5334 0,-0.30621 -0.12841,-0.5334 -0.12347,-0.22719 -0.34079,-0.35066 -0.21731,-0.12841 -0.49388,-0.12841 -0.27658,0 -0.49389,0.12841 -0.21731,0.12347 -0.34573,0.35066 -0.12841,0.22719 -0.12841,0.5334 0,0.30128 0.12841,0.5334 0.12842,0.22719 0.34573,0.3556 0.21731,0.12348 0.48895,0.12348 z"
         style="stroke-width:0.05"
         id="path813" />
      <path
         d="m 251.99744,129.01837 -0.9779,-2.59292 h 0.33585 l 0.889,2.40524 h -0.15311 l 0.9137,-2.40524 h 0.30127 l 0.90382,2.40524 h -0.15311 l 0.90382,-2.40524 h 0.32103 l -0.98284,2.59292 h -0.33091 l -0.86924,-2.26201 h 0.10371 l -0.87418,2.26201 z"
         style="stroke-width:0.05"
         id="path816" />
    </g>
    <g
       aria-label="&gt; 40"
       id="text606-7-7"
       style="font-size:4.93889px;font-family:Montserrat;-inkscape-font-specification:Montserrat;text-align:center;text-anchor:middle;stroke-width:0.0499999">
      <path
         d="m 279.2573,128.30717 v -0.30621 l 2.02,-0.79517 v 0.15805 l -2.02,-0.79516 v -0.30621 l 2.14841,0.85936 v 0.32597 z"
         style="stroke-width:0.05"
         id="path819" />
      <path
         d="m 283.24298,128.10467 v -0.25682 l 1.83233,-2.29165 h 0.39511 l -1.81751,2.29165 -0.19262,-0.0593 h 2.7806 v 0.31609 z m 1.95086,0.90876 v -0.90876 l 0.01,-0.31609 v -0.8001 h 0.34572 v 2.02495 z"
         style="stroke-width:0.05"
         id="path821" />
      <path
         d="m 287.9448,129.04306 q -0.40005,0 -0.7112,-0.20743 -0.31115,-0.21237 -0.48895,-0.60255 -0.1778,-0.39511 -0.1778,-0.94826 0,-0.55316 0.1778,-0.94333 0.1778,-0.39511 0.48895,-0.60255 0.31115,-0.21237 0.7112,-0.21237 0.40005,0 0.7112,0.21237 0.31115,0.20744 0.48895,0.60255 0.18274,0.39017 0.18274,0.94333 0,0.55315 -0.18274,0.94826 -0.1778,0.39018 -0.48895,0.60255 -0.31115,0.20743 -0.7112,0.20743 z m 0,-0.32597 q 0.30621,0 0.5334,-0.16298 0.22719,-0.16792 0.3556,-0.48401 0.12841,-0.32103 0.12841,-0.78528 0,-0.46426 -0.12841,-0.78035 -0.12841,-0.32103 -0.3556,-0.48401 -0.22719,-0.16792 -0.5334,-0.16792 -0.29633,0 -0.52846,0.16792 -0.23213,0.16298 -0.36054,0.48401 -0.12841,0.31609 -0.12841,0.78035 0,0.46425 0.12841,0.78528 0.12841,0.31609 0.36054,0.48401 0.23213,0.16298 0.52846,0.16298 z"
         style="stroke-width:0.05"
         id="path823" />
    </g>
  </g>
</svg>
