<?xml version="1.0" encoding="UTF-8" standalone="no"?>
<!-- Created with Inkscape (http://www.inkscape.org/) -->

<svg
   width="62.70499mm"
   height="36.52932mm"
   viewBox="0 0 62.70499 36.52932"
   version="1.1"
   id="svg2421"
   inkscape:version="1.2.1 (9c6d41e410, 2022-07-14)"
   sodipodi:docname="murder_or_assault.svg"
   xmlns:inkscape="http://www.inkscape.org/namespaces/inkscape"
   xmlns:sodipodi="http://sodipodi.sourceforge.net/DTD/sodipodi-0.dtd"
   xmlns="http://www.w3.org/2000/svg"
   xmlns:svg="http://www.w3.org/2000/svg"
   xmlns:rdf="http://www.w3.org/1999/02/22-rdf-syntax-ns#"
   xmlns:cc="http://creativecommons.org/ns#"
   xmlns:dc="http://purl.org/dc/elements/1.1/">
  <defs
     id="defs2415" />
  <sodipodi:namedview
     id="base"
     pagecolor="#ffffff"
     bordercolor="#666666"
     borderopacity="1.0"
     inkscape:pageopacity="0.0"
     inkscape:pageshadow="2"
     inkscape:zoom="3.959798"
     inkscape:cx="76.645324"
     inkscape:cy="60.86169"
     inkscape:document-units="mm"
     inkscape:current-layer="layer1"
     showgrid="false"
     inkscape:window-width="1920"
     inkscape:window-height="1009"
     inkscape:window-x="1912"
     inkscape:window-y="-8"
     inkscape:window-maximized="1"
     inkscape:showpageshadow="2"
     inkscape:pagecheckerboard="0"
     inkscape:deskcolor="#d1d1d1" />
  <metadata
     id="metadata2418">
    <rdf:RDF>
      <cc:Work
         rdf:about="">
        <dc:format>image/svg+xml</dc:format>
        <dc:type
           rdf:resource="http://purl.org/dc/dcmitype/StillImage" />
      </cc:Work>
    </rdf:RDF>
  </metadata>
  <g
     inkscape:label="Layer 1"
     inkscape:groupmode="layer"
     id="layer1"
     transform="translate(-237.0106,-103.35439)">
    <path
       inkscape:connector-curvature="0"
       style="color:#000000;font-style:normal;font-variant:normal;font-weight:normal;font-stretch:normal;font-size:medium;line-height:normal;font-family:sans-serif;font-variant-ligatures:normal;font-variant-position:normal;font-variant-caps:normal;font-variant-numeric:normal;font-variant-alternates:normal;font-feature-settings:normal;text-indent:0;text-align:start;text-decoration:none;text-decoration-line:none;text-decoration-style:solid;text-decoration-color:#000000;letter-spacing:normal;word-spacing:normal;text-transform:none;writing-mode:lr-tb;direction:ltr;text-orientation:mixed;dominant-baseline:auto;baseline-shift:baseline;text-anchor:start;white-space:normal;shape-padding:0;clip-rule:nonzero;display:inline;overflow:visible;visibility:visible;opacity:1;isolation:auto;mix-blend-mode:normal;color-interpolation:sRGB;color-interpolation-filters:linearRGB;solid-color:#000000;solid-opacity:1;vector-effect:none;fill:#fdacff;fill-opacity:1;fill-rule:nonzero;stroke:#000000;stroke-width:0.5;stroke-linecap:round;stroke-linejoin:round;stroke-miterlimit:4;stroke-dasharray:none;stroke-dashoffset:0;stroke-opacity:1;color-rendering:auto;image-rendering:auto;shape-rendering:auto;text-rendering:auto;enable-background:accumulate"
       d="m 255.74681,103.60439 c -10.20382,0 -18.48621,8.06391 -18.48621,18.01388 0,9.94998 8.28239,18.01544 18.48621,18.01544 4.87612,0 9.31087,-1.84475 12.61577,-4.85397 3.30441,3.00911 7.73871,4.85397 12.61473,4.85397 10.20382,0 18.48828,-8.06546 18.48828,-18.01544 0,-9.94997 -8.28446,-18.01388 -18.48828,-18.01388 -4.87606,0 -9.31032,1.84476 -12.61473,4.85344 -3.30491,-3.00879 -7.73961,-4.85344 -12.61577,-4.85344 z"
       id="path919" />
    <path
       style="color:#000000;font-style:normal;font-variant:normal;font-weight:normal;font-stretch:normal;font-size:medium;line-height:normal;font-family:sans-serif;font-variant-ligatures:normal;font-variant-position:normal;font-variant-caps:normal;font-variant-numeric:normal;font-variant-alternates:normal;font-feature-settings:normal;text-indent:0;text-align:start;text-decoration:none;text-decoration-line:none;text-decoration-style:solid;text-decoration-color:#000000;letter-spacing:normal;word-spacing:normal;text-transform:none;writing-mode:lr-tb;direction:ltr;text-orientation:mixed;dominant-baseline:auto;baseline-shift:baseline;text-anchor:start;white-space:normal;shape-padding:0;clip-rule:nonzero;display:inline;overflow:visible;visibility:visible;opacity:1;isolation:auto;mix-blend-mode:normal;color-interpolation:sRGB;color-interpolation-filters:linearRGB;solid-color:#000000;solid-opacity:1;vector-effect:none;fill:none;fill-opacity:1;fill-rule:nonzero;stroke:none;stroke-width:0.5;stroke-linecap:round;stroke-linejoin:round;stroke-miterlimit:4;stroke-dasharray:none;stroke-dashoffset:0;stroke-opacity:1;color-rendering:auto;image-rendering:auto;shape-rendering:auto;text-rendering:auto;enable-background:accumulate"
       d="m 255.74681,104.10436 c 4.73605,0 9.03985,1.78242 12.25093,4.69221 -3.39777,3.26617 -5.50664,7.80298 -5.50664,12.82144 0,5.01857 2.10874,9.5558 5.50664,12.82248 -3.21108,2.91021 -7.51491,4.69325 -12.25093,4.69325 -9.9406,0 -17.9865,-7.84316 -17.9865,-17.51573 0,-9.67257 8.0459,-17.51365 17.9865,-17.51365 z"
       id="path917"
       inkscape:connector-curvature="0" />
    <path
       style="color:#000000;font-style:normal;font-variant:normal;font-weight:normal;font-stretch:normal;font-size:medium;line-height:normal;font-family:sans-serif;font-variant-ligatures:normal;font-variant-position:normal;font-variant-caps:normal;font-variant-numeric:normal;font-variant-alternates:normal;font-feature-settings:normal;text-indent:0;text-align:start;text-decoration:none;text-decoration-line:none;text-decoration-style:solid;text-decoration-color:#000000;letter-spacing:normal;word-spacing:normal;text-transform:none;writing-mode:lr-tb;direction:ltr;text-orientation:mixed;dominant-baseline:auto;baseline-shift:baseline;text-anchor:start;white-space:normal;shape-padding:0;clip-rule:nonzero;display:inline;overflow:visible;visibility:visible;opacity:1;isolation:auto;mix-blend-mode:normal;color-interpolation:sRGB;color-interpolation-filters:linearRGB;solid-color:#000000;solid-opacity:1;vector-effect:none;fill:none;fill-opacity:1;fill-rule:nonzero;stroke:none;stroke-width:0.5;stroke-linecap:round;stroke-linejoin:round;stroke-miterlimit:4;stroke-dasharray:none;stroke-dashoffset:0;stroke-opacity:1;color-rendering:auto;image-rendering:auto;shape-rendering:auto;text-rendering:auto;enable-background:accumulate"
       d="m 280.97731,104.10436 c 9.9406,0 17.98805,7.84108 17.98805,17.51365 0,9.67257 -8.04745,17.51573 -17.98805,17.51573 -4.73602,0 -9.03928,-1.78304 -12.2499,-4.69325 3.39837,-3.26668 5.50768,-7.80392 5.50768,-12.82248 0,-5.01844 -2.10943,-9.55527 -5.50768,-12.82144 3.21063,-2.90979 7.51385,-4.69221 12.2499,-4.69221 z"
       id="path915"
       inkscape:connector-curvature="0" />
    <path
       style="color:#000000;font-style:normal;font-variant:normal;font-weight:normal;font-stretch:normal;font-size:medium;line-height:normal;font-family:sans-serif;font-variant-ligatures:normal;font-variant-position:normal;font-variant-caps:normal;font-variant-numeric:normal;font-variant-alternates:normal;font-feature-settings:normal;text-indent:0;text-align:start;text-decoration:none;text-decoration-line:none;text-decoration-style:solid;text-decoration-color:#000000;letter-spacing:normal;word-spacing:normal;text-transform:none;writing-mode:lr-tb;direction:ltr;text-orientation:mixed;dominant-baseline:auto;baseline-shift:baseline;text-anchor:start;white-space:normal;shape-padding:0;clip-rule:nonzero;display:inline;overflow:visible;visibility:visible;opacity:1;isolation:auto;mix-blend-mode:normal;color-interpolation:sRGB;color-interpolation-filters:linearRGB;solid-color:#000000;solid-opacity:1;vector-effect:none;fill:#fdacff;fill-opacity:1;fill-rule:nonzero;stroke:#000000;stroke-width:0.5;stroke-linecap:round;stroke-linejoin:round;stroke-miterlimit:4;stroke-dasharray:none;stroke-dashoffset:0;stroke-opacity:1;color-rendering:auto;image-rendering:auto;shape-rendering:auto;text-rendering:auto;enable-background:accumulate"
       d="m 268.36258,109.13609 c 3.3155,3.17695 5.3728,7.59491 5.3728,12.48244 0,4.88763 -2.05718,9.30602 -5.3728,12.48348 -3.31514,-3.17746 -5.37177,-7.59585 -5.37177,-12.48348 0,-4.88753 2.05676,-9.30549 5.37177,-12.48244 z"
       id="path815"
       inkscape:connector-curvature="0" />
    <g
       aria-label="Murder
&gt; 15"
       id="text963"
       style="font-weight:bold;font-size:4.93889px;font-family:Quattrocento;-inkscape-font-specification:'Quattrocento Bold';text-align:center;text-anchor:middle;fill:#fdacff;stroke-width:0.264583">
      <path
         d="m 245.23503,121.00787 h -0.92122 v -2.40433 l -0.66559,1.56028 h -0.63907 l -0.66559,-1.56028 v 2.40433 h -0.87299 v -3.59082 h 1.07556 l 0.80788,1.80144 0.80546,-1.80144 h 1.07556 z"
         style="fill:#000000"
         id="path1199" />
      <path
         d="m 248.80174,121.00787 h -0.86817 v -0.29903 q -0.24115,0.18328 -0.44131,0.27974 -0.20016,0.094 -0.47749,0.094 -0.44856,0 -0.69212,-0.25804 -0.24116,-0.25803 -0.24116,-0.76205 v -1.76286 h 0.87299 v 1.34325 q 0,0.20498 0.0121,0.34244 0.0145,0.13505 0.0627,0.22427 0.0458,0.0892 0.13746,0.13023 0.0941,0.041 0.26044,0.041 0.11094,0 0.24598,-0.041 0.13505,-0.041 0.26045,-0.12058 v -1.91961 h 0.86817 z"
         style="fill:#000000"
         id="path1201" />
      <path
         d="m 251.58469,119.12685 h -0.0772 q -0.0555,-0.0193 -0.17846,-0.0289 -0.12299,-0.01 -0.20498,-0.01 -0.18569,0 -0.32798,0.0241 -0.14228,0.0241 -0.30626,0.082 v 1.8135 h -0.86817 v -2.70819 h 0.86817 v 0.39791 q 0.28697,-0.24598 0.49919,-0.32556 0.21222,-0.082 0.39067,-0.082 0.0458,0 0.1037,0.002 0.0579,0.002 0.10129,0.007 z"
         style="fill:#000000"
         id="path1203" />
      <path
         d="m 254.71008,121.00787 h -0.86817 v -0.28215 q -0.22427,0.18328 -0.41961,0.2701 -0.19534,0.0868 -0.45096,0.0868 -0.49437,0 -0.791,-0.38103 -0.29662,-0.38102 -0.29662,-1.02732 0,-0.34486 0.0989,-0.61013 0.10129,-0.26768 0.27492,-0.4582 0.16399,-0.18087 0.39791,-0.27974 0.23392,-0.10129 0.46785,-0.10129 0.24356,0 0.3979,0.0531 0.15676,0.0506 0.32074,0.13022 v -1.15273 h 0.86817 z m -0.86817,-0.74758 v -1.32878 q -0.0916,-0.0386 -0.19292,-0.0555 -0.10129,-0.0169 -0.18569,-0.0169 -0.34245,0 -0.51367,0.21463 -0.17122,0.21221 -0.17122,0.59083 0,0.39791 0.13746,0.57878 0.13746,0.17845 0.44132,0.17845 0.11817,0 0.2508,-0.0434 0.13264,-0.0458 0.23392,-0.11816 z"
         style="fill:#000000"
         id="path1205" />
      <path
         d="m 258.1972,119.81415 h -1.98713 q 0.0193,0.31832 0.24116,0.48713 0.22427,0.16881 0.65836,0.16881 0.27492,0 0.53295,-0.0989 0.25804,-0.0989 0.40756,-0.21222 h 0.0965 v 0.69694 q -0.29421,0.11817 -0.55466,0.17123 -0.26045,0.053 -0.57636,0.053 -0.81511,0 -1.2492,-0.36656 -0.43408,-0.36656 -0.43408,-1.04421 0,-0.67041 0.40997,-1.06109 0.41238,-0.39308 1.12861,-0.39308 0.66077,0 0.99357,0.33521 0.33279,0.33279 0.33279,0.9598 z m -0.86334,-0.50884 q -0.007,-0.27251 -0.13504,-0.40997 -0.12782,-0.13746 -0.39791,-0.13746 -0.25081,0 -0.41238,0.13023 -0.16158,0.13022 -0.18087,0.4172 z"
         style="fill:#000000"
         id="path1207" />
      <path
         d="m 260.77276,119.12685 h -0.0772 q -0.0555,-0.0193 -0.17846,-0.0289 -0.12299,-0.01 -0.20498,-0.01 -0.18569,0 -0.32797,0.0241 -0.14229,0.0241 -0.30627,0.082 v 1.8135 h -0.86817 v -2.70819 h 0.86817 v 0.39791 q 0.28697,-0.24598 0.49919,-0.32556 0.21222,-0.082 0.39068,-0.082 0.0458,0 0.10369,0.002 0.0579,0.002 0.10129,0.007 z"
         style="fill:#000000"
         id="path1209" />
      <path
         d="m 246.92318,126.50863 v -0.30621 l 2.02001,-0.79517 v 0.15805 l -2.02001,-0.79516 v -0.30621 l 2.14842,0.85936 v 0.32597 z"
         style="font-weight:normal;font-family:Montserrat;-inkscape-font-specification:Montserrat;fill:#000000"
         id="path1211" />
      <path
         d="m 251.57068,127.21489 v -3.30906 l 0.15804,0.16792 h -0.97296 v -0.31608 h 1.17052 v 3.45722 z"
         style="font-weight:normal;font-family:Montserrat;-inkscape-font-specification:Montserrat;fill:#000000"
         id="path1213" />
      <path
         d="m 253.84257,127.24452 q -0.37042,0 -0.70626,-0.11853 -0.33585,-0.12347 -0.5334,-0.32597 l 0.17286,-0.28151 q 0.16298,0.17286 0.4445,0.28645 0.28645,0.1136 0.61736,0.1136 0.43956,0 0.66675,-0.19262 0.23213,-0.19756 0.23213,-0.51365 0,-0.22225 -0.10866,-0.38029 -0.10371,-0.16298 -0.3556,-0.25188 -0.25188,-0.0889 -0.69144,-0.0889 h -0.7359 l 0.1778,-1.73355 h 1.8916 v 0.31608 h -1.74837 l 0.18274,-0.17286 -0.15311,1.45204 -0.18273,-0.1778 h 0.64699 q 0.52352,0 0.83961,0.12841 0.31609,0.12841 0.45438,0.36054 0.14323,0.22719 0.14323,0.5334 0,0.29139 -0.13829,0.5334 -0.13829,0.23706 -0.41487,0.37535 -0.27658,0.13829 -0.70132,0.13829 z"
         style="font-weight:normal;font-family:Montserrat;-inkscape-font-specification:Montserrat;fill:#000000"
         id="path1215" />
    </g>
    <g
       aria-label="Assault
&gt; 300"
       id="text963-9"
       style="font-weight:bold;font-size:4.93889px;font-family:Quattrocento;-inkscape-font-specification:'Quattrocento Bold';text-align:center;text-anchor:middle;fill:#fdacff;stroke-width:0.264583">
      <path
         d="m 279.10793,121.00787 h -0.9574 l -0.24839,-0.72588 h -1.33118 l -0.24839,0.72588 h -0.93328 l 1.32636,-3.59082 h 1.06591 z m -1.43006,-1.38424 -0.44132,-1.28777 -0.44132,1.28777 z"
         style="fill:#000000"
         id="path1218" />
      <path
         d="m 281.92946,120.14936 q 0,0.41961 -0.3762,0.67765 -0.37621,0.25562 -1.02974,0.25562 -0.36174,0 -0.65595,-0.0675 -0.29421,-0.0675 -0.47267,-0.14952 v -0.71382 h 0.0796 q 0.0651,0.0458 0.14952,0.10128 0.0868,0.0531 0.24357,0.11576 0.13505,0.0555 0.30627,0.0965 0.17122,0.0386 0.36656,0.0386 0.25562,0 0.37861,-0.0555 0.12299,-0.0579 0.12299,-0.16881 0,-0.0989 -0.0723,-0.14228 -0.0723,-0.0458 -0.27492,-0.0868 -0.0965,-0.0217 -0.26286,-0.0458 -0.16399,-0.0265 -0.29904,-0.0627 -0.36897,-0.0965 -0.54742,-0.29903 -0.17846,-0.20499 -0.17846,-0.50884 0,-0.39068 0.36897,-0.64872 0.37138,-0.26045 1.01286,-0.26045 0.30386,0 0.58119,0.0627 0.27974,0.0603 0.43649,0.13022 v 0.68489 h -0.0748 q -0.19292,-0.13264 -0.44132,-0.21463 -0.24598,-0.0844 -0.49919,-0.0844 -0.20981,0 -0.3545,0.0579 -0.14228,0.0579 -0.14228,0.16399 0,0.0965 0.0651,0.1471 0.0651,0.0506 0.30627,0.10129 0.13264,0.0265 0.28456,0.053 0.15434,0.0241 0.30868,0.0627 0.34245,0.0892 0.50643,0.28216 0.16399,0.19051 0.16399,0.47749 z"
         style="fill:#000000"
         id="path1220" />
      <path
         d="m 284.85951,120.14936 q 0,0.41961 -0.3762,0.67765 -0.3762,0.25562 -1.02974,0.25562 -0.36173,0 -0.65595,-0.0675 -0.29421,-0.0675 -0.47266,-0.14952 v -0.71382 h 0.0796 q 0.0651,0.0458 0.14952,0.10128 0.0868,0.0531 0.24356,0.11576 0.13505,0.0555 0.30627,0.0965 0.17122,0.0386 0.36656,0.0386 0.25563,0 0.37862,-0.0555 0.12299,-0.0579 0.12299,-0.16881 0,-0.0989 -0.0723,-0.14228 -0.0724,-0.0458 -0.27492,-0.0868 -0.0965,-0.0217 -0.26286,-0.0458 -0.16399,-0.0265 -0.29903,-0.0627 -0.36897,-0.0965 -0.54743,-0.29903 -0.17846,-0.20499 -0.17846,-0.50884 0,-0.39068 0.36897,-0.64872 0.37139,-0.26045 1.01286,-0.26045 0.30386,0 0.58119,0.0627 0.27974,0.0603 0.43649,0.13022 v 0.68489 h -0.0747 q -0.19293,-0.13264 -0.44132,-0.21463 -0.24598,-0.0844 -0.4992,-0.0844 -0.2098,0 -0.3545,0.0579 -0.14228,0.0579 -0.14228,0.16399 0,0.0965 0.0651,0.1471 0.0651,0.0506 0.30627,0.10129 0.13264,0.0265 0.28457,0.053 0.15434,0.0241 0.30868,0.0627 0.34244,0.0892 0.50643,0.28216 0.16398,0.19051 0.16398,0.47749 z"
         style="fill:#000000"
         id="path1222" />
      <path
         d="m 287.07575,120.30128 v -0.5643 q -0.17605,0.0145 -0.38103,0.041 -0.20499,0.0241 -0.31109,0.0579 -0.13023,0.041 -0.20016,0.12058 -0.0675,0.0772 -0.0675,0.20498 0,0.0844 0.0145,0.13746 0.0145,0.0531 0.0724,0.10129 0.0555,0.0482 0.13263,0.0724 0.0772,0.0217 0.24116,0.0217 0.13023,0 0.26286,-0.053 0.13505,-0.0531 0.23634,-0.13988 z m 0,0.41962 q -0.0699,0.053 -0.17364,0.12781 -0.1037,0.0748 -0.19533,0.11817 -0.12782,0.0579 -0.26528,0.0844 -0.13746,0.0289 -0.30144,0.0289 -0.38585,0 -0.6463,-0.23874 -0.26045,-0.23875 -0.26045,-0.61013 0,-0.29662 0.13263,-0.48473 0.13264,-0.1881 0.37621,-0.29662 0.24116,-0.10852 0.59807,-0.15434 0.35691,-0.0458 0.74035,-0.0675 v -0.0145 q 0,-0.22428 -0.18328,-0.30868 -0.18328,-0.0868 -0.54019,-0.0868 -0.21463,0 -0.4582,0.0772 -0.24357,0.0748 -0.34968,0.11576 h -0.0796 v -0.65354 q 0.13746,-0.0362 0.44614,-0.0844 0.31109,-0.0507 0.62219,-0.0507 0.74035,0 1.06832,0.2291 0.33038,0.22669 0.33038,0.71383 v 1.84243 h -0.86092 z"
         style="fill:#000000"
         id="path1224" />
      <path
         d="m 291.43345,121.00787 h -0.86817 v -0.29903 q -0.24115,0.18328 -0.44131,0.27974 -0.20016,0.094 -0.47749,0.094 -0.44856,0 -0.69212,-0.25804 -0.24116,-0.25803 -0.24116,-0.76205 v -1.76286 h 0.87299 v 1.34325 q 0,0.20498 0.012,0.34244 0.0145,0.13505 0.0627,0.22427 0.0458,0.0892 0.13746,0.13023 0.0941,0.041 0.26045,0.041 0.11094,0 0.24598,-0.041 0.13505,-0.041 0.26045,-0.12058 v -1.91961 h 0.86817 z"
         style="fill:#000000"
         id="path1226" />
      <path
         d="m 293.12154,121.00787 h -0.86816 v -3.7524 h 0.86816 z"
         style="fill:#000000"
         id="path1228" />
      <path
         d="m 295.67298,120.98376 q -0.13987,0.0362 -0.29662,0.0555 -0.15675,0.0217 -0.38344,0.0217 -0.50643,0 -0.75482,-0.20499 -0.24598,-0.20498 -0.24598,-0.70176 v -1.26607 h -0.35691 v -0.58843 h 0.35691 v -0.77411 h 0.86816 v 0.77411 h 0.8127 v 0.58843 h -0.8127 v 0.9598 q 0,0.14228 0.002,0.24839 0.002,0.10611 0.0386,0.19051 0.0338,0.0844 0.11817,0.13505 0.0868,0.0482 0.2508,0.0482 0.0675,0 0.17604,-0.0289 0.11094,-0.0289 0.15434,-0.0531 h 0.0723 z"
         style="fill:#000000"
         id="path1230" />
      <path
         d="m 279.17294,126.50863 v -0.30621 l 2.02001,-0.79517 v 0.15805 l -2.02001,-0.79516 v -0.30621 l 2.14842,0.85936 v 0.32597 z"
         style="font-weight:normal;font-family:Montserrat;-inkscape-font-specification:Montserrat;fill:#000000"
         id="path1232" />
      <path
         d="m 284.25012,127.24452 q -0.37536,0 -0.7112,-0.11853 -0.33091,-0.12347 -0.5334,-0.32597 l 0.17286,-0.28151 q 0.16792,0.17286 0.44944,0.28645 0.28645,0.1136 0.6223,0.1136 0.42968,0 0.65687,-0.18768 0.23213,-0.18768 0.23213,-0.50377 0,-0.31609 -0.22719,-0.50377 -0.22225,-0.18767 -0.70626,-0.18767 h -0.24695 v -0.26177 l 1.06681,-1.33843 0.0494,0.13828 h -1.92616 v -0.31608 h 2.2225 v 0.25188 l -1.0668,1.33844 -0.17286,-0.1136 h 0.13335 q 0.6223,0 0.92851,0.27658 0.31115,0.27658 0.31115,0.7112 0,0.2914 -0.13829,0.52352 -0.13829,0.23213 -0.41981,0.36548 -0.27657,0.13335 -0.69638,0.13335 z"
         style="font-weight:normal;font-family:Montserrat;-inkscape-font-specification:Montserrat;fill:#000000"
         id="path1234" />
      <path
         d="m 287.38137,127.24452 q -0.40005,0 -0.7112,-0.20743 -0.31115,-0.21237 -0.48895,-0.60255 -0.1778,-0.39511 -0.1778,-0.94826 0,-0.55316 0.1778,-0.94333 0.1778,-0.39511 0.48895,-0.60255 0.31115,-0.21237 0.7112,-0.21237 0.40005,0 0.7112,0.21237 0.31115,0.20744 0.48895,0.60255 0.18274,0.39017 0.18274,0.94333 0,0.55315 -0.18274,0.94826 -0.1778,0.39018 -0.48895,0.60255 -0.31115,0.20743 -0.7112,0.20743 z m 0,-0.32596 q 0.30621,0 0.5334,-0.16299 0.22719,-0.16792 0.3556,-0.48401 0.12841,-0.32103 0.12841,-0.78528 0,-0.46426 -0.12841,-0.78035 -0.12841,-0.32103 -0.3556,-0.48401 -0.22719,-0.16792 -0.5334,-0.16792 -0.29633,0 -0.52846,0.16792 -0.23213,0.16298 -0.36054,0.48401 -0.12841,0.31609 -0.12841,0.78035 0,0.46425 0.12841,0.78528 0.12841,0.31609 0.36054,0.48401 0.23213,0.16299 0.52846,0.16299 z"
         style="font-weight:normal;font-family:Montserrat;-inkscape-font-specification:Montserrat;fill:#000000"
         id="path1236" />
      <path
         d="m 290.65092,127.24452 q -0.40005,0 -0.7112,-0.20743 -0.31115,-0.21237 -0.48895,-0.60255 -0.1778,-0.39511 -0.1778,-0.94826 0,-0.55316 0.1778,-0.94333 0.1778,-0.39511 0.48895,-0.60255 0.31115,-0.21237 0.7112,-0.21237 0.40005,0 0.7112,0.21237 0.31115,0.20744 0.48895,0.60255 0.18274,0.39017 0.18274,0.94333 0,0.55315 -0.18274,0.94826 -0.1778,0.39018 -0.48895,0.60255 -0.31115,0.20743 -0.7112,0.20743 z m 0,-0.32596 q 0.30621,0 0.5334,-0.16299 0.22719,-0.16792 0.3556,-0.48401 0.12841,-0.32103 0.12841,-0.78528 0,-0.46426 -0.12841,-0.78035 -0.12841,-0.32103 -0.3556,-0.48401 -0.22719,-0.16792 -0.5334,-0.16792 -0.29633,0 -0.52846,0.16792 -0.23213,0.16298 -0.36054,0.48401 -0.12841,0.31609 -0.12841,0.78035 0,0.46425 0.12841,0.78528 0.12841,0.31609 0.36054,0.48401 0.23213,0.16299 0.52846,0.16299 z"
         style="font-weight:normal;font-family:Montserrat;-inkscape-font-specification:Montserrat;fill:#000000"
         id="path1238" />
    </g>
  </g>
</svg>
